<svg width="21" height="19" viewBox="0 0 21 19" fill="none" xmlns="http://www.w3.org/2000/svg">
<path d="M3.90471 3.44H19.4341L17.4637 10.766C17.3153 11.3175 17.0018 11.8026 16.5708 12.1479C16.1397 12.4932 15.6145 12.68 15.0747 12.68H6.75094C6.13903 12.6804 5.54852 12.4408 5.09255 12.0072C4.63657 11.5737 4.34721 10.9766 4.2799 10.3304L3.28353 0.799999H0.798828" stroke="white" stroke-width="1.6" stroke-linecap="round" stroke-linejoin="round"/>
<path d="M6.38884 17.3C7.07497 17.3 7.63119 16.709 7.63119 15.98C7.63119 15.251 7.07497 14.66 6.38884 14.66C5.7027 14.66 5.14648 15.251 5.14648 15.98C5.14648 16.709 5.7027 17.3 6.38884 17.3Z" stroke="white" stroke-width="1.6" stroke-linecap="round" stroke-linejoin="round"/>
<path d="M16.3283 17.3C17.0144 17.3 17.5706 16.709 17.5706 15.98C17.5706 15.251 17.0144 14.66 16.3283 14.66C15.6422 14.66 15.0859 15.251 15.0859 15.98C15.0859 16.709 15.6422 17.3 16.3283 17.3Z" stroke="white" stroke-width="1.6" stroke-linecap="round" stroke-linejoin="round"/>
</svg>
