<svg width="21" height="19" viewBox="0 0 21 19" fill="none" xmlns="http://www.w3.org/2000/svg">
<path d="M3.90568 3.44H19.4351L17.4647 10.766C17.3163 11.3175 17.0028 11.8026 16.5717 12.1479C16.1407 12.4932 15.6155 12.68 15.0757 12.68H6.75191C6.14001 12.6804 5.5495 12.4408 5.09352 12.0073C4.63755 11.5737 4.34818 10.9766 4.28087 10.3304L3.28451 0.800003H0.799805" stroke="black" stroke-width="1.6" stroke-linecap="round" stroke-linejoin="round"/>
<path d="M6.39079 17.3C7.07692 17.3 7.63314 16.709 7.63314 15.98C7.63314 15.251 7.07692 14.66 6.39079 14.66C5.70466 14.66 5.14844 15.251 5.14844 15.98C5.14844 16.709 5.70466 17.3 6.39079 17.3Z" stroke="black" stroke-width="1.6" stroke-linecap="round" stroke-linejoin="round"/>
<path d="M16.3293 17.3C17.0154 17.3 17.5716 16.709 17.5716 15.98C17.5716 15.251 17.0154 14.66 16.3293 14.66C15.6431 14.66 15.0869 15.251 15.0869 15.98C15.0869 16.709 15.6431 17.3 16.3293 17.3Z" stroke="black" stroke-width="1.6" stroke-linecap="round" stroke-linejoin="round"/>
</svg>
