<svg width="103" height="103" viewBox="0 0 103 103" fill="none" xmlns="http://www.w3.org/2000/svg">
<rect width="103" height="103" rx="51.5" fill="#FAF9F9"/>
<path d="M38.1348 37.627H69.9988V49.0676C69.9988 53.2799 66.584 56.6946 62.3717 56.6946H42.372" stroke="#AFAFAF" stroke-width="2" stroke-miterlimit="10" stroke-linecap="round" stroke-linejoin="round"/>
<path d="M44.0674 71.9486C46.1736 71.9486 47.8809 70.2413 47.8809 68.1351C47.8809 66.029 46.1736 64.3216 44.0674 64.3216C41.9613 64.3216 40.2539 66.029 40.2539 68.1351C40.2539 70.2413 41.9613 71.9486 44.0674 71.9486Z" stroke="#AFAFAF" stroke-width="2" stroke-miterlimit="10" stroke-linecap="round" stroke-linejoin="round"/>
<path d="M66.1866 71.9486C68.2927 71.9486 70.0001 70.2413 70.0001 68.1351C70.0001 66.029 68.2927 64.3216 66.1866 64.3216C64.0804 64.3216 62.373 66.029 62.373 68.1351C62.373 70.2413 64.0804 71.9486 66.1866 71.9486Z" stroke="#AFAFAF" stroke-width="2" stroke-miterlimit="10" stroke-linecap="round" stroke-linejoin="round"/>
<path d="M27.2643 41.4405H31.1694M25 30H33.3814C35.1688 30 36.7164 31.2414 37.1041 32.9863L44.0676 64.3216H66.1859M28.8135 49.0676H47.8811M30.6531 56.6946H34.5599" stroke="#AFAFAF" stroke-width="2" stroke-miterlimit="10" stroke-linecap="round" stroke-linejoin="round"/>
</svg>
