<svg width="24" height="24" viewBox="0 0 24 24" fill="none" xmlns="http://www.w3.org/2000/svg">
<mask id="mask0_528_7947" style="mask-type:luminance" maskUnits="userSpaceOnUse" x="1" y="3" width="22" height="18">
<path d="M6.5 7.5V6C6.5 5.60218 6.34196 5.22064 6.06066 4.93934C5.77936 4.65804 5.39782 4.5 5 4.5C4.60218 4.5 4.22064 4.65804 3.93934 4.93934C3.65804 5.22064 3.5 5.60218 3.5 6V9.5" stroke="white" stroke-width="2" stroke-linecap="round" stroke-linejoin="round"/>
<path d="M2 13.5C2 10.1865 4.6865 7.5 8 7.5C11.3135 7.5 14 10.1865 14 13.5V19.5H2V13.5ZM14 13.5H22V19.5H14V13.5Z" fill="white"/>
<path d="M14 13.5C14 10.1865 11.3135 7.5 8 7.5C4.6865 7.5 2 10.1865 2 13.5V19.5H14M14 13.5V19.5M14 13.5H22V19.5H14" stroke="white" stroke-width="2" stroke-linejoin="round"/>
<path d="M8 15.5C9.10457 15.5 10 14.6046 10 13.5C10 12.3954 9.10457 11.5 8 11.5C6.89543 11.5 6 12.3954 6 13.5C6 14.6046 6.89543 15.5 8 15.5Z" fill="black" stroke="black" stroke-width="2"/>
<path d="M19.5 13.5V15.5M16.5 13.5V15.5" stroke="black" stroke-width="2" stroke-linecap="round" stroke-linejoin="round"/>
<path d="M15 13.5H21" stroke="white" stroke-width="2" stroke-linecap="round" stroke-linejoin="round"/>
</mask>
<g mask="url(#mask0_528_7947)">
<path d="M0 0H24V24H0V0Z" fill="#54AF6D"/>
</g>
</svg>
