<svg width="20" height="20" viewBox="0 0 20 20" fill="none" xmlns="http://www.w3.org/2000/svg">
<g clip-path="url(#clip0_516_7552)">
<path d="M19.9283 13.2441L19.4483 11.6483L9.67081 14.5866L6.02081 2.06831C5.93311 1.75179 5.78352 1.4558 5.58069 1.19747C5.37786 0.939139 5.12582 0.723595 4.83914 0.563309C4.25664 0.234976 3.58331 0.155809 2.90164 0.346642L0.0566406 1.29248L0.582474 2.87414L3.38914 1.94081C3.49443 1.91059 3.6047 1.90174 3.71347 1.91476C3.82223 1.92778 3.92729 1.96242 4.02247 2.01664C4.21664 2.12581 4.35581 2.30414 4.41914 2.52664L7.81581 14.1766C7.06146 14.2023 6.34647 14.5196 5.8213 15.0617C5.29612 15.6038 5.0017 16.3285 4.99997 17.0833C4.99997 18.6916 6.30831 20 7.91664 20C9.52497 20 10.8333 18.6916 10.8333 17.0833C10.8333 16.7141 10.7575 16.3641 10.6316 16.0383L19.9283 13.2441ZM7.91581 18.3333C7.22664 18.3333 6.66581 17.7725 6.66581 17.0833C6.66581 16.3941 7.22664 15.8333 7.91581 15.8333C8.60497 15.8333 9.16581 16.3941 9.16581 17.0833C9.16581 17.7725 8.60497 18.3333 7.91581 18.3333ZM10.8875 12.4666L18.0908 10.2841L14.9758 0.0374756L7.77414 2.21998L10.8883 12.4666H10.8875ZM16.01 9.17247L11.9975 10.3883L11.1675 7.65664L15.18 6.44081L16.01 9.17247ZM13.865 2.11498L14.695 4.84664L10.6825 6.06248L9.85247 3.33081L13.865 2.11498Z" fill="#C2C6C2"/>
</g>
<defs>
<clipPath id="clip0_516_7552">
<rect width="20" height="20" fill="white"/>
</clipPath>
</defs>
</svg>
