<svg width="46" height="46" viewBox="0 0 46 46" fill="none" xmlns="http://www.w3.org/2000/svg">
<path d="M23.7704 17.5517H28.9625V37.7265L17.4004 37.7273" stroke="#369939" stroke-width="2.6" stroke-miterlimit="10" stroke-linecap="round" stroke-linejoin="round"/>
<mask id="mask0_369_4811" style="mask-type:luminance" maskUnits="userSpaceOnUse" x="1" y="1" width="43" height="43">
<path d="M42.7002 42.7002V2.2998H2.2998V42.7002H42.7002Z" fill="white" stroke="white" stroke-width="2.6"/>
</mask>
<g mask="url(#mask0_369_4811)">
<path d="M7.45176 17.5515H2.25977V37.7262L7.32226 37.7268" stroke="#369939" stroke-width="2.6" stroke-miterlimit="10" stroke-linecap="round" stroke-linejoin="round"/>
</g>
<path d="M33.3323 37.7268L28.9629 37.7265" stroke="#369939" stroke-width="2.6" stroke-miterlimit="10" stroke-linecap="round" stroke-linejoin="round"/>
<mask id="mask1_369_4811" style="mask-type:luminance" maskUnits="userSpaceOnUse" x="1" y="1" width="43" height="43">
<path d="M42.7002 42.7002V2.2998H2.2998V42.7002H42.7002Z" fill="white" stroke="white" stroke-width="2.6"/>
</mask>
<g mask="url(#mask1_369_4811)">
<path d="M38.3714 37.7266H42.7405V31.0564C42.7405 27.9938 41.9724 24.98 40.5064 22.291C40.3994 22.0948 40.2416 21.9311 40.0495 21.817C39.8573 21.7029 39.638 21.6427 39.4146 21.6427H28.9629" stroke="#369939" stroke-width="2.6" stroke-miterlimit="10" stroke-linecap="round" stroke-linejoin="round"/>
<path d="M42.7187 30.1685H28.9629" stroke="#369939" stroke-width="2.6" stroke-miterlimit="10" stroke-linecap="round" stroke-linejoin="round"/>
<path d="M12.3613 37.7266C12.3613 39.118 11.2333 40.2461 9.8418 40.2461C8.45026 40.2461 7.32227 39.118 7.32227 37.7266C7.32227 36.3351 8.45026 35.207 9.8418 35.207C11.2333 35.207 12.3613 36.3351 12.3613 37.7266Z" stroke="#369939" stroke-width="2.6" stroke-miterlimit="10" stroke-linecap="round" stroke-linejoin="round"/>
<path d="M17.4004 37.7266C17.4004 39.118 16.2723 40.2461 14.8809 40.2461C13.4893 40.2461 12.3613 39.118 12.3613 37.7266C12.3613 36.3351 13.4893 35.207 14.8809 35.207C16.2723 35.207 17.4004 36.3351 17.4004 37.7266Z" stroke="#369939" stroke-width="2.6" stroke-miterlimit="10" stroke-linecap="round" stroke-linejoin="round"/>
<path d="M38.3711 37.7266C38.3711 39.118 37.243 40.2461 35.8516 40.2461C34.4601 40.2461 33.332 39.118 33.332 37.7266C33.332 36.3351 34.4601 35.207 35.8516 35.207C37.243 35.207 38.3711 36.3351 38.3711 37.7266Z" stroke="#369939" stroke-width="2.6" stroke-miterlimit="10" stroke-linecap="round" stroke-linejoin="round"/>
<path d="M34.0166 30.1687V26.6819" stroke="#369939" stroke-width="2.6" stroke-miterlimit="10" stroke-linecap="round" stroke-linejoin="round"/>
<path d="M19.3906 13.8611C19.3906 15.9483 17.6986 17.6404 15.6113 17.6404C13.5241 17.6404 11.832 15.9483 11.832 13.8611C11.832 11.7738 13.5241 10.0818 15.6113 10.0818C17.6986 10.0818 19.3906 11.7738 19.3906 13.8611Z" stroke="#369939" stroke-width="2.6" stroke-miterlimit="10" stroke-linecap="round" stroke-linejoin="round"/>
<path d="M22.8199 8.29227C21.1054 6.07685 18.4134 4.75325 15.6117 4.75325C12.8102 4.75325 10.1181 6.07685 8.40369 8.29227C6.4702 10.7914 6.12418 13.8027 7.14039 16.7456C8.11738 19.5746 10.1921 21.9337 11.8885 24.365C13.102 26.1044 14.3155 27.8437 15.5289 29.5837L15.6117 29.7019L15.6945 29.5837C16.908 27.8437 18.1215 26.1044 19.3349 24.365C21.0314 21.9337 23.1061 19.5746 24.0831 16.7456C25.0994 13.8027 24.7533 10.7914 22.8199 8.29227Z" stroke="#369939" stroke-width="2.6" stroke-miterlimit="10" stroke-linecap="round" stroke-linejoin="round"/>
</g>
</svg>
