<svg width="20" height="18" viewBox="0 0 20 18" fill="none" xmlns="http://www.w3.org/2000/svg">
<path fill-rule="evenodd" clip-rule="evenodd" d="M18.6055 6.14256C18.6055 4.14166 17.4758 2.46399 15.9326 1.75779C14.433 1.07218 12.4174 1.25422 10.5029 3.24217C10.4378 3.30969 10.3598 3.36368 10.2734 3.40037C10.1873 3.43698 10.0946 3.45599 10.001 3.45603C9.90719 3.45603 9.81385 3.43706 9.72754 3.40037C9.64129 3.36369 9.56309 3.30965 9.49805 3.24217C7.58364 1.25352 5.56889 1.07228 4.06934 1.75779C2.52598 2.46388 1.39551 4.14243 1.39551 6.14256C1.39562 8.18696 2.2327 9.76167 3.43066 11.1123C4.654 12.4891 6.19612 13.5748 7.60645 14.6865C8.09576 15.0726 8.53171 15.4116 8.95312 15.6572C9.37362 15.9037 9.71259 16.0156 10.001 16.0156C10.2892 16.0155 10.6267 15.9026 11.0479 15.6572C11.4693 15.4116 11.9062 15.0726 12.3955 14.6865C13.8057 13.5749 15.3471 12.489 16.5703 11.1123C17.7684 9.76163 18.6054 8.18705 18.6055 6.14256ZM20.001 6.14256C20.0009 8.62244 18.9686 10.5135 17.6133 12.039C16.283 13.5377 14.5864 14.7366 13.2598 15.7832C12.7825 16.159 12.2711 16.559 11.752 16.8623C11.234 17.1644 10.6426 17.411 10.001 17.4111C9.35917 17.4111 8.76714 17.1655 8.24902 16.8623C7.731 16.5591 7.21931 16.1589 6.74219 15.7832C5.41559 14.7375 3.71801 13.5368 2.3877 12.039C1.03247 10.5144 0.000109192 8.62235 0 6.14256C0 3.61978 1.42885 1.43173 3.48828 0.489237C5.44077 -0.403351 7.85033 -0.133384 10 1.791C12.1512 -0.133688 14.5598 -0.40353 16.5127 0.489237C18.5732 1.43167 20.001 3.61967 20.001 6.14256Z" fill="black"/>
</svg>
