<svg width="46" height="46" viewBox="0 0 46 46" fill="none" xmlns="http://www.w3.org/2000/svg">
<path d="M28.519 28.2967L3 28.307V3H30.2082L40.5741 13.3659V20.2677M7.96648 20.599H23.3523M7.96648 10.6373H23.3523M7.96648 15.6181H23.3523" stroke="#369939" stroke-width="2.6" stroke-miterlimit="10" stroke-linecap="round" stroke-linejoin="round"/>
<path d="M40.5739 13.3659H30.208V3M41.2167 30.6831V43L35.7538 40.5096L30.291 43V31.1894" stroke="#369939" stroke-width="2.6" stroke-miterlimit="10" stroke-linecap="round" stroke-linejoin="round"/>
<path d="M35.5631 33.2755C39.6893 33.2755 43.0343 29.9305 43.0343 25.8043C43.0343 21.678 39.6893 18.333 35.5631 18.333C31.4368 18.333 28.0918 21.678 28.0918 25.8043C28.0918 29.9305 31.4368 33.2755 35.5631 33.2755Z" stroke="#369939" stroke-width="2.6" stroke-miterlimit="10" stroke-linecap="round" stroke-linejoin="round"/>
<path d="M35.5627 28.2948C36.9381 28.2948 38.0531 27.1798 38.0531 25.8044C38.0531 24.429 36.9381 23.314 35.5627 23.314C34.1873 23.314 33.0723 24.429 33.0723 25.8044C33.0723 27.1798 34.1873 28.2948 35.5627 28.2948Z" stroke="#369939" stroke-width="2.6" stroke-miterlimit="10" stroke-linecap="round" stroke-linejoin="round"/>
</svg>
