<svg width="24" height="24" viewBox="0 0 24 24" fill="none" xmlns="http://www.w3.org/2000/svg">
<path d="M13.4583 4.25187C12.6299 3.91604 11.7034 3.91604 10.8751 4.25187L8.86758 5.06587L17.6603 8.48504L20.7531 7.29062C20.6259 7.18602 20.4838 7.10106 20.3314 7.03854L13.4583 4.25187ZM21.3333 8.54004L12.8542 11.8162V21.829C13.0595 21.7874 13.2609 21.7266 13.4583 21.6465L20.3314 18.8599C20.6275 18.74 20.881 18.5344 21.0595 18.2695C21.238 18.0046 21.3333 17.6925 21.3333 17.373V8.54004ZM11.4792 21.829V11.8162L3 8.54004V17.374C3.00018 17.6932 3.09562 18.0052 3.27411 18.2699C3.45259 18.5346 3.70601 18.74 4.00192 18.8599L10.8751 21.6465C11.0725 21.726 11.2738 21.7862 11.4792 21.829ZM3.58025 7.29062L12.1667 10.608L15.7572 9.22021L7.0095 5.81937L4.00192 7.03854C3.84547 7.1021 3.70492 7.18612 3.58025 7.29062Z" fill="#54AF6D"/>
</svg>
