<svg width="20" height="20" viewBox="0 0 20 20" fill="none" xmlns="http://www.w3.org/2000/svg">
<g clip-path="url(#clip0_516_7545)">
<path d="M20 8.33331C20 6.03581 18.1308 4.16665 15.8333 4.16665H14.1667V3.33331C14.1667 1.95498 13.045 0.833313 11.6667 0.833313H10V2.49998H11.6667C12.1267 2.49998 12.5 2.87415 12.5 3.33331V14.1666H1.66667V10.8333H0V15.8333H1.6975C1.63833 16.2471 1.66869 16.6687 1.78652 17.0698C1.90434 17.4708 2.1069 17.8419 2.38048 18.1579C2.65407 18.4739 2.99231 18.7275 3.37235 18.9015C3.75238 19.0756 4.16535 19.166 4.58333 19.1666C5.00132 19.166 5.41429 19.0756 5.79432 18.9015C6.17435 18.7275 6.5126 18.4739 6.78618 18.1579C7.05977 17.8419 7.26232 17.4708 7.38015 17.0698C7.49798 16.6687 7.52833 16.2471 7.46917 15.8333H12.5308C12.4717 16.2471 12.502 16.6687 12.6198 17.0698C12.7377 17.4708 12.9402 17.8419 13.2138 18.1579C13.4874 18.4739 13.8256 18.7275 14.2057 18.9015C14.5857 19.0756 14.9987 19.166 15.4167 19.1666C15.8347 19.166 16.2476 19.0756 16.6277 18.9015C17.0077 18.7275 17.3459 18.4739 17.6195 18.1579C17.8931 17.8419 18.0957 17.4708 18.2135 17.0698C18.3313 16.6687 18.3617 16.2471 18.3025 15.8333H20V8.33331ZM5.83333 16.25C5.83333 16.9391 5.2725 17.5 4.58333 17.5C3.89417 17.5 3.33333 16.9391 3.33333 16.25C3.33333 16.0925 3.36417 15.9533 3.40917 15.8333H5.75833C5.80333 15.9533 5.83333 16.0925 5.83333 16.25ZM15.8333 5.83331C17.2117 5.83331 18.3333 6.95498 18.3333 8.33331V9.16665H14.1667V5.83331H15.8333ZM16.6667 16.25C16.6667 16.9391 16.1058 17.5 15.4167 17.5C14.7275 17.5 14.1667 16.9391 14.1667 16.25C14.1667 16.0925 14.1975 15.9533 14.2425 15.8333H16.5917C16.6367 15.9533 16.6667 16.0925 16.6667 16.25ZM14.1667 14.1666V10.8333H18.3333V14.1666H14.1667ZM8.33333 2.49998H0V0.833313H8.33333V2.49998ZM6.66667 5.83331H0V4.16665H6.66667V5.83331ZM5 9.16665H0V7.49998H5V9.16665Z" fill="#C2C6C2"/>
</g>
<defs>
<clipPath id="clip0_516_7545">
<rect width="20" height="20" fill="white"/>
</clipPath>
</defs>
</svg>
