<svg width="20" height="20" viewBox="0 0 20 20" fill="none" xmlns="http://www.w3.org/2000/svg">
<g clip-path="url(#clip0_282_3550)">
<path d="M18.7587 17.4964L15.2396 13.8082C17.8727 10.1219 17.1548 4.89728 13.636 2.13877C10.1172 -0.619735 5.13011 0.132421 2.49699 3.81875C-0.136134 7.50508 0.581832 12.7297 4.1006 15.4882C6.92717 17.7041 10.8094 17.7041 13.636 15.4882L17.1565 19.1764C17.599 19.6399 18.3162 19.6399 18.7586 19.1764C19.201 18.7129 19.201 17.9614 18.7586 17.498L18.7587 17.4964ZM8.89764 14.7763C5.77032 14.7763 3.23516 12.1205 3.23516 8.84422C3.23516 5.56798 5.77032 2.9121 8.89764 2.9121C12.025 2.9121 14.5601 5.56798 14.5601 8.84422C14.5568 12.119 12.0236 14.7728 8.89764 14.7763Z" fill="#A1A1A1"/>
</g>
<defs>
<clipPath id="clip0_282_3550">
<rect width="20" height="20" fill="white"/>
</clipPath>
</defs>
</svg>
