<svg width="46" height="46" viewBox="0 0 46 46" fill="none" xmlns="http://www.w3.org/2000/svg">
<path d="M12.041 9.0835V33.5206M28.4098 20.7161H18.0562V30.9458H28.4098M28.4098 20.7161V30.9458M28.4098 20.7161H38.7635V30.9458H28.4098M23.233 23.94V20.7161M33.5866 23.94V20.7161" stroke="#369939" stroke-width="2.6" stroke-miterlimit="10" stroke-linecap="round" stroke-linejoin="round"/>
<path d="M17.182 42.5277C18.8197 42.5277 20.1473 41.2001 20.1473 39.5624C20.1473 37.9248 18.8197 36.5972 17.182 36.5972C15.5444 36.5972 14.2168 37.9248 14.2168 39.5624C14.2168 41.2001 15.5444 42.5277 17.182 42.5277Z" stroke="#369939" stroke-width="2.6" stroke-miterlimit="10" stroke-linecap="round" stroke-linejoin="round"/>
<path d="M37.0971 42.5279C38.7347 42.5279 40.0623 41.2003 40.0623 39.5627C40.0623 37.925 38.7347 36.5974 37.0971 36.5974C35.4594 36.5974 34.1318 37.925 34.1318 39.5627C34.1318 41.2003 35.4594 42.5279 37.0971 42.5279Z" stroke="#369939" stroke-width="2.6" stroke-miterlimit="10" stroke-linecap="round" stroke-linejoin="round"/>
<path d="M28.4102 13.7098V10.486M23.2334 10.486H33.587V20.7158H23.2334V10.486ZM12.0414 30.9455H40.4584C41.8621 30.9455 43 32.0834 43 33.4871V36.0288H14.5831C13.1793 36.0288 12.0414 34.8909 12.0414 33.4871V30.9455ZM4.54164 9.08328H12.0414V6.54164C12.0414 5.13789 10.9035 4 9.49978 4H4.54164C3.13789 4 2 5.13789 2 6.54164C2 7.94538 3.13789 9.08328 4.54164 9.08328Z" stroke="#369939" stroke-width="2.6" stroke-miterlimit="10" stroke-linecap="round" stroke-linejoin="round"/>
</svg>
