<svg width="24" height="24" viewBox="0 0 24 24" fill="none" xmlns="http://www.w3.org/2000/svg">
<g clip-path="url(#clip0_294_2853)">
<path d="M12 3C16.9707 3 21 7.0293 21 12C21 16.9707 16.9707 21 12 21C7.0293 21 3 16.9707 3 12C3 7.0293 7.0293 3 12 3ZM12 4.2555C9.94603 4.2555 7.97619 5.07144 6.52381 6.52381C5.07144 7.97619 4.2555 9.94603 4.2555 12C4.2555 14.054 5.07144 16.0238 6.52381 17.4762C7.97619 18.9286 9.94603 19.7445 12 19.7445C14.054 19.7445 16.0238 18.9286 17.4762 17.4762C18.9286 16.0238 19.7445 14.054 19.7445 12C19.7445 9.94603 18.9286 7.97619 17.4762 6.52381C16.0238 5.07144 14.054 4.2555 12 4.2555ZM11.163 8.0229C11.5095 8.0229 11.7903 8.3046 11.7903 8.6511V13.0467H16.1859C16.3483 13.0528 16.502 13.1217 16.6147 13.2387C16.7274 13.3558 16.7903 13.512 16.7903 13.6744C16.7903 13.8369 16.7274 13.9931 16.6147 14.1102C16.502 14.2272 16.3483 14.2961 16.1859 14.3022H11.163C10.9965 14.3017 10.837 14.2354 10.7193 14.1177C10.6016 14 10.5353 13.8405 10.5348 13.674V8.652C10.5348 8.3046 10.8156 8.0229 11.163 8.0229Z" fill="#369939"/>
</g>
<defs>
<clipPath id="clip0_294_2853">
<rect width="18" height="18" fill="white" transform="translate(3 3)"/>
</clipPath>
</defs>
</svg>
