<svg width="20" height="20" viewBox="0 0 20 20" fill="none" xmlns="http://www.w3.org/2000/svg">
<g clip-path="url(#clip0_284_4385)">
<path d="M10.8839 2.73581C10.6495 2.50172 10.3318 2.37024 10.0006 2.37024C9.66931 2.37024 9.3516 2.50172 9.11722 2.73581L4.40139 7.44914C4.16689 7.68363 4.03516 8.00168 4.03516 8.33331C4.03516 8.66493 4.16689 8.98298 4.40139 9.21747C4.63589 9.45197 4.95393 9.58371 5.28556 9.58371C5.61718 9.58371 5.93523 9.45197 6.16972 9.21747L8.75056 6.63747V16.25C8.75056 16.5815 8.88225 16.8994 9.11667 17.1339C9.35109 17.3683 9.66904 17.5 10.0006 17.5C10.3321 17.5 10.65 17.3683 10.8844 17.1339C11.1189 16.8994 11.2506 16.5815 11.2506 16.25V6.63747L13.8306 9.21747C13.9467 9.33358 14.0845 9.42569 14.2362 9.48852C14.3879 9.55136 14.5505 9.58371 14.7147 9.58371C14.8789 9.58371 15.0415 9.55136 15.1932 9.48852C15.3449 9.42569 15.4828 9.33358 15.5989 9.21747C15.715 9.10136 15.8071 8.96352 15.8699 8.81181C15.9328 8.66011 15.9651 8.49751 15.9651 8.33331C15.9651 8.1691 15.9328 8.0065 15.8699 7.8548C15.8071 7.70309 15.715 7.56525 15.5989 7.44914L10.8839 2.73581Z" fill="#369939"/>
</g>
<defs>
<clipPath id="clip0_284_4385">
<rect width="20" height="20" fill="white"/>
</clipPath>
</defs>
</svg>
