<svg width="50" height="50" viewBox="0 0 50 50" fill="none" xmlns="http://www.w3.org/2000/svg">
<circle cx="25" cy="25" r="25" fill="#58E154"/>
<mask id="mask0_294_2890" style="mask-type:luminance" maskUnits="userSpaceOnUse" x="13" y="13" width="25" height="25">
<path d="M13.75 13.75H37.5V37.5H13.75V13.75Z" fill="white"/>
</mask>
<g mask="url(#mask0_294_2890)">
<path d="M27.8625 13.9251L27.15 13.8251C25.0087 13.516 22.8236 13.8218 20.8494 14.7071C18.8753 15.5924 17.1935 17.0205 16 18.8251C14.7302 20.5501 13.9732 22.5986 13.8162 24.7348C13.6592 26.8709 14.1085 29.008 15.1125 30.9001C15.2152 31.0898 15.2792 31.298 15.3007 31.5126C15.3221 31.7272 15.3007 31.9439 15.2375 32.1501C14.725 33.9126 14.25 35.6876 13.75 37.5501L14.375 37.3626C16.0625 36.9126 17.75 36.4626 19.4375 36.0501C19.7937 35.9761 20.1639 36.0109 20.5 36.1501C22.014 36.889 23.6685 37.2956 25.3526 37.3424C27.0366 37.3892 28.7112 37.0753 30.2639 36.4217C31.8166 35.7681 33.2116 34.7899 34.3551 33.5528C35.4987 32.3157 36.3644 30.8483 36.8942 29.2491C37.424 27.6499 37.6055 25.9558 37.4267 24.2807C37.2479 22.6055 36.7128 20.9879 35.8574 19.5366C35.002 18.0852 33.8461 16.8336 32.4671 15.8658C31.0882 14.898 29.5182 14.2363 27.8625 13.9251ZM31.0125 30.3251C30.5582 30.7319 30.0042 31.011 29.407 31.1339C28.8097 31.2569 28.1905 31.2193 27.6125 31.0251C24.9937 30.2866 22.7216 28.6434 21.2 26.3876C20.619 25.5896 20.152 24.7146 19.8125 23.7876C19.6286 23.2499 19.5954 22.672 19.7166 22.1167C19.8378 21.5614 20.1087 21.0499 20.5 20.6376C20.6905 20.3945 20.9498 20.2144 21.2441 20.1208C21.5384 20.0271 21.8541 20.0243 22.15 20.1126C22.4 20.1751 22.575 20.5376 22.8 20.8126C22.9833 21.3293 23.1958 21.8335 23.4375 22.3251C23.6205 22.5758 23.697 22.8886 23.6501 23.1954C23.6033 23.5022 23.437 23.778 23.1875 23.9626C22.625 24.4626 22.7125 24.8751 23.1125 25.4376C23.9963 26.712 25.2167 27.716 26.6375 28.3376C27.0375 28.5126 27.3375 28.5501 27.6 28.1376C27.7125 27.9751 27.8625 27.8376 27.9875 27.6876C28.7125 26.7751 28.4875 26.7876 29.6375 27.2876C30.0042 27.4418 30.3583 27.621 30.7 27.8251C31.0375 28.0251 31.55 28.2376 31.625 28.5376C31.6972 28.8631 31.6782 29.2022 31.5701 29.5175C31.462 29.8329 31.2691 30.1123 31.0125 30.3251Z" fill="white"/>
</g>
</svg>
