<svg width="20" height="20" viewBox="0 0 20 20" fill="none" xmlns="http://www.w3.org/2000/svg">
<path d="M10.0003 5.83333C10.2364 5.83333 10.4345 5.75333 10.5945 5.59333C10.7545 5.43333 10.8342 5.23556 10.8336 5C10.8331 4.76444 10.7531 4.56667 10.5936 4.40667C10.4342 4.24667 10.2364 4.16667 10.0003 4.16667C9.76419 4.16667 9.56641 4.24667 9.40697 4.40667C9.24752 4.56667 9.16752 4.76444 9.16697 5C9.16641 5.23556 9.24641 5.43361 9.40697 5.59417C9.56752 5.75472 9.7653 5.83444 10.0003 5.83333ZM12.3545 5.83333H13.8128C14.2295 5.83333 14.5906 5.97222 14.8961 6.25C15.2017 6.52778 15.3892 6.86806 15.4586 7.27083L16.6461 15.6042C16.7156 16.1042 16.5872 16.5453 16.2611 16.9275C15.935 17.3097 15.5147 17.5006 15.0003 17.5H5.0003C4.48641 17.5 4.06613 17.3092 3.73947 16.9275C3.4128 16.5458 3.28447 16.1047 3.35447 15.6042L4.54197 7.27083C4.61141 6.86806 4.79891 6.52778 5.10447 6.25C5.41002 5.97222 5.77113 5.83333 6.1878 5.83333H7.64613C7.60447 5.69444 7.56974 5.55917 7.54197 5.4275C7.51419 5.29583 7.5003 5.15333 7.5003 5C7.5003 4.30556 7.74336 3.71528 8.22947 3.22917C8.71558 2.74306 9.30586 2.5 10.0003 2.5C10.6947 2.5 11.285 2.74306 11.7711 3.22917C12.2572 3.71528 12.5003 4.30556 12.5003 5C12.5003 5.15278 12.4864 5.29528 12.4586 5.4275C12.4309 5.55972 12.3961 5.695 12.3545 5.83333Z" fill="#369939"/>
</svg>
