<svg width="46" height="46" viewBox="0 0 46 46" fill="none" xmlns="http://www.w3.org/2000/svg">
<path d="M18.168 23.6902L21.6198 27.1421L28.5234 20.2384" stroke="#369939" stroke-width="2.6" stroke-miterlimit="10" stroke-linecap="round" stroke-linejoin="round"/>
<mask id="mask0_443_5844" style="mask-type:luminance" maskUnits="userSpaceOnUse" x="1" y="1" width="44" height="44">
<path d="M43.7002 43.7002V2.2998H2.2998V43.7002H43.7002Z" fill="white" stroke="white" stroke-width="2.6"/>
</mask>
<g mask="url(#mask0_443_5844)">
<path d="M22.9998 10.5735C29.858 10.5735 35.4264 16.1415 35.4264 23C35.4264 29.8585 29.858 35.4265 22.9998 35.4265C16.1416 35.4265 10.5732 29.8585 10.5732 23C10.5732 16.1415 16.1416 10.5735 22.9998 10.5735Z" stroke="#369939" stroke-width="2.6" stroke-miterlimit="10" stroke-linecap="round" stroke-linejoin="round"/>
<path d="M19.2637 5.44065L20.0376 2.49978C21.0188 2.35917 22.0088 2.28875 23 2.28907C24.0058 2.28907 24.9951 2.36091 25.9623 2.49978L26.7362 5.44065C28.9198 5.90377 30.9577 6.76452 32.7707 7.94401L35.401 6.4096C36.1942 7.00386 36.9441 7.65402 37.6447 8.35514C38.3457 9.0558 38.9958 9.80558 39.5901 10.5988L38.0562 13.2293C39.2352 15.0421 40.0961 17.08 40.5594 19.2639L43.5003 20.0376C43.6408 21.0188 43.7112 22.0088 43.7109 23C43.7112 23.9912 43.6408 24.9812 43.5003 25.9624L40.5594 26.7362C40.0961 28.9201 39.2352 30.958 38.0562 32.7707L39.5901 35.4012C38.9958 36.1944 38.3457 36.9442 37.6447 37.6449C36.9441 38.346 36.1943 38.9962 35.401 39.5904L32.7707 38.056C30.9577 39.2354 28.9198 40.0963 26.7362 40.5594L25.9623 43.5002C24.9811 43.6408 23.9912 43.7112 23 43.7109C21.9941 43.7109 21.0048 43.6391 20.0376 43.5002L19.2637 40.5594C17.0801 40.0963 15.0422 39.2355 13.2292 38.056L10.599 39.5904C9.80565 38.9962 9.05583 38.346 8.35522 37.6449C7.65422 36.9442 7.00411 36.1944 6.40985 35.4012L7.94375 32.7707C6.76469 30.958 5.90377 28.92 5.44048 26.7362L2.49961 25.9624C2.35914 24.9812 2.28878 23.9912 2.28906 23C2.28906 21.9941 2.36091 21.0048 2.49961 20.0376L5.44048 19.2639C5.90377 17.0799 6.76469 15.0421 7.94375 13.2293L6.40985 10.5988C7.00411 9.80558 7.65422 9.0558 8.35522 8.35514C9.05585 7.65402 9.80568 7.00386 10.599 6.4096L13.2292 7.94401C15.0422 6.7646 17.0801 5.90377 19.2637 5.44065Z" stroke="#369939" stroke-width="2.6" stroke-miterlimit="10" stroke-linecap="round" stroke-linejoin="round"/>
</g>
</svg>
