<svg width="461" height="233" viewBox="0 0 461 233" fill="none" xmlns="http://www.w3.org/2000/svg">
<mask id="path-1-inside-1_689_10175" fill="white">
<path d="M269.285 0.164062C288.881 -0.21768 302.707 4.745 310.872 14.9434L310.818 14.998C318.983 25.1965 319.582 41.6668 312.669 64.4629L281.859 165.52C274.946 188.261 264.168 204.95 249.688 215.53C235.209 226.165 218.171 231.618 198.575 232C178.979 232.382 165.153 227.419 156.988 217.166C148.823 206.968 148.225 190.498 155.138 167.756L185.947 66.6982C192.915 43.9566 203.638 27.2139 218.117 16.6338C232.651 5.94456 249.689 0.545821 269.285 0.164062ZM124.763 152.213V152.267L140.929 151.994L129.661 189.025L113.494 189.298L100.92 230.527L57.0469 231.291L69.6211 190.062L0 191.261L9.41699 160.393L122.803 5.88965L169.616 5.07227L124.763 152.213ZM416.09 147.141L432.257 146.868L420.989 183.898L404.822 184.171L392.248 225.401L348.32 226.165L360.895 184.935L291.273 186.135L300.69 155.267L414.076 0.818359L460.943 0L416.09 147.141ZM257.255 39.5391C245.606 39.7573 237.496 47.1204 233.087 61.6816L199.719 171.137C195.255 185.753 198.902 192.951 210.551 192.733C222.2 192.515 230.256 185.153 234.72 170.537L268.088 61.0811C272.551 46.5199 268.904 39.3209 257.255 39.5391ZM47.9014 153.631L80.8887 153.03L105.329 72.8613L47.9014 153.631ZM339.175 148.504L372.162 147.904L396.603 67.7344L339.175 148.504Z"/>
</mask>
<path d="M269.285 0.164062L269.266 -0.835748V-0.835748L269.285 0.164062ZM310.872 14.9434L311.586 15.6441L312.207 15.011L311.653 14.3184L310.872 14.9434ZM310.818 14.998L310.105 14.2973L309.483 14.9304L310.038 15.623L310.818 14.998ZM312.669 64.4629L313.625 64.7545L313.626 64.7531L312.669 64.4629ZM281.859 165.52L280.903 165.228L280.903 165.229L281.859 165.52ZM249.688 215.53L249.098 214.723L249.097 214.724L249.688 215.53ZM198.575 232L198.595 233V233L198.575 232ZM156.988 217.166L157.771 216.543L157.769 216.541L156.988 217.166ZM155.138 167.756L154.181 167.464L154.181 167.465L155.138 167.756ZM185.947 66.6982L184.991 66.4053L184.991 66.4066L185.947 66.6982ZM218.117 16.6338L218.707 17.4412L218.71 17.4394L218.117 16.6338ZM124.763 152.213L123.806 151.921L123.763 152.064V152.213H124.763ZM124.763 152.267H123.763V153.284L124.78 153.266L124.763 152.267ZM140.929 151.994L141.885 152.285L142.285 150.971L140.912 150.994L140.929 151.994ZM129.661 189.025L129.678 190.025L130.406 190.013L130.618 189.316L129.661 189.025ZM113.494 189.298L113.477 188.298L112.75 188.31L112.538 189.006L113.494 189.298ZM100.92 230.527L100.937 231.527L101.664 231.515L101.876 230.819L100.92 230.527ZM57.0469 231.291L56.0904 230.999L55.6892 232.315L57.0643 232.291L57.0469 231.291ZM69.6211 190.062L70.5776 190.353L70.9787 189.038L69.6039 189.062L69.6211 190.062ZM0 191.261L-0.956481 190.969L-1.35775 192.284L0.0172224 192.261L0 191.261ZM9.41699 160.393L8.6108 159.801L8.51015 159.938L8.46051 160.101L9.41699 160.393ZM122.803 5.88965L122.785 4.8898L122.29 4.89845L121.997 5.298L122.803 5.88965ZM169.616 5.07227L170.573 5.36385L170.974 4.04841L169.599 4.07242L169.616 5.07227ZM416.09 147.141L415.133 146.849L414.733 148.164L416.107 148.14L416.09 147.141ZM432.257 146.868L433.214 147.159L433.613 145.845L432.24 145.868L432.257 146.868ZM420.989 183.898L421.006 184.898L421.734 184.886L421.946 184.19L420.989 183.898ZM404.822 184.171L404.805 183.171L404.078 183.183L403.866 183.879L404.822 184.171ZM392.248 225.401L392.265 226.401L392.992 226.389L393.205 225.693L392.248 225.401ZM348.32 226.165L347.364 225.873L346.963 227.189L348.338 227.165L348.32 226.165ZM360.895 184.935L361.851 185.226L362.252 183.911L360.877 183.935L360.895 184.935ZM291.273 186.135L290.317 185.843L289.916 187.158L291.291 187.135L291.273 186.135ZM300.69 155.267L299.884 154.675L299.784 154.812L299.734 154.975L300.69 155.267ZM414.076 0.818359L414.059 -0.181488L413.563 -0.172838L413.27 0.226576L414.076 0.818359ZM460.943 0L461.9 0.291588L462.301 -1.02386L460.926 -0.999848L460.943 0ZM257.255 39.5391L257.236 38.5392V38.5392L257.255 39.5391ZM233.087 61.6816L234.043 61.9732L234.044 61.9714L233.087 61.6816ZM199.719 171.137L200.675 171.429L200.675 171.428L199.719 171.137ZM210.551 192.733L210.57 193.733V193.733L210.551 192.733ZM234.72 170.537L235.676 170.829L235.676 170.829L234.72 170.537ZM268.088 61.0811L267.132 60.788L267.131 60.7894L268.088 61.0811ZM47.9014 153.631L47.0864 153.051L45.9378 154.667L47.9196 154.631L47.9014 153.631ZM80.8887 153.03L80.9069 154.03L81.6333 154.017L81.8452 153.322L80.8887 153.03ZM105.329 72.8613L106.286 73.1529L104.514 72.2819L105.329 72.8613ZM339.175 148.504L338.36 147.924L337.211 149.54L339.193 149.504L339.175 148.504ZM372.162 147.904L372.18 148.904L372.907 148.891L373.119 148.196L372.162 147.904ZM396.603 67.7344L397.559 68.026L395.788 67.1549L396.603 67.7344ZM269.285 0.164062L269.305 1.16387C288.746 0.785137 302.201 5.71259 310.091 15.5684L310.872 14.9434L311.653 14.3184C303.213 3.77742 289.016 -1.2205 269.266 -0.835748L269.285 0.164062ZM310.872 14.9434L310.159 14.2427L310.105 14.2973L310.818 14.998L311.532 15.6988L311.586 15.6441L310.872 14.9434ZM310.818 14.998L310.038 15.623C317.874 25.4107 318.606 41.4399 311.712 64.1727L312.669 64.4629L313.626 64.7531C320.558 41.8936 320.093 24.9822 311.599 14.3731L310.818 14.998ZM312.669 64.4629L311.712 64.1713L280.903 165.228L281.859 165.52L282.816 165.811L313.625 64.7545L312.669 64.4629ZM281.859 165.52L280.903 165.229C274.033 187.828 263.355 204.306 249.098 214.723L249.688 215.53L250.278 216.338C264.981 205.595 275.86 188.695 282.816 165.81L281.859 165.52ZM249.688 215.53L249.097 214.724C234.8 225.224 217.967 230.622 198.556 231L198.575 232L198.595 233C218.375 232.614 235.618 227.105 250.28 216.336L249.688 215.53ZM198.575 232L198.556 231C179.114 231.379 165.661 226.451 157.771 216.543L156.988 217.166L156.206 217.789C164.645 228.386 178.844 233.385 198.595 233L198.575 232ZM156.988 217.166L157.769 216.541C149.933 206.753 149.201 190.724 156.094 168.047L155.138 167.756L154.181 167.465C147.248 190.271 147.714 207.182 156.208 217.791L156.988 217.166ZM155.138 167.756L156.094 168.047L186.904 66.9899L185.947 66.6982L184.991 66.4066L154.181 167.464L155.138 167.756ZM185.947 66.6982L186.903 66.9912C193.829 44.3873 204.453 27.8571 218.707 17.4412L218.117 16.6338L217.527 15.8264C202.823 26.5707 192.001 43.5259 184.991 66.4053L185.947 66.6982ZM218.117 16.6338L218.71 17.4394C233.059 6.88584 249.891 1.54207 269.305 1.16387L269.285 0.164062L269.266 -0.835748C249.487 -0.450429 232.243 5.00327 217.525 15.8282L218.117 16.6338ZM124.763 152.213H123.763V152.267H124.763H125.763V152.213H124.763ZM124.763 152.267L124.78 153.266L140.946 152.994L140.929 151.994L140.912 150.994L124.746 151.267L124.763 152.267ZM140.929 151.994L139.972 151.703L128.704 188.734L129.661 189.025L130.618 189.316L141.885 152.285L140.929 151.994ZM129.661 189.025L129.644 188.026L113.477 188.298L113.494 189.298L113.511 190.298L129.678 190.025L129.661 189.025ZM113.494 189.298L112.538 189.006L99.9634 230.236L100.92 230.527L101.876 230.819L114.451 189.59L113.494 189.298ZM100.92 230.527L100.903 229.527L57.0295 230.291L57.0469 231.291L57.0643 232.291L100.937 231.527L100.92 230.527ZM57.0469 231.291L58.0034 231.583L70.5776 190.353L69.6211 190.062L68.6646 189.77L56.0904 230.999L57.0469 231.291ZM69.6211 190.062L69.6039 189.062L-0.0172224 190.261L0 191.261L0.0172224 192.261L69.6383 191.061L69.6211 190.062ZM0 191.261L0.956481 191.553L10.3735 160.684L9.41699 160.393L8.46051 160.101L-0.956481 190.969L0 191.261ZM9.41699 160.393L10.2232 160.984L123.609 6.4813L122.803 5.88965L121.997 5.298L8.6108 159.801L9.41699 160.393ZM122.803 5.88965L122.82 6.8895L169.634 6.07211L169.616 5.07227L169.599 4.07242L122.785 4.8898L122.803 5.88965ZM169.616 5.07227L168.66 4.78068L123.806 151.921L124.763 152.213L125.719 152.504L170.573 5.36385L169.616 5.07227ZM416.09 147.141L416.107 148.14L432.274 147.868L432.257 146.868L432.24 145.868L416.073 146.141L416.09 147.141ZM432.257 146.868L431.3 146.577L420.033 183.607L420.989 183.898L421.946 184.19L433.214 147.159L432.257 146.868ZM420.989 183.898L420.972 182.899L404.805 183.171L404.822 184.171L404.839 185.171L421.006 184.898L420.989 183.898ZM404.822 184.171L403.866 183.879L391.292 225.11L392.248 225.401L393.205 225.693L405.779 184.463L404.822 184.171ZM392.248 225.401L392.231 224.402L348.303 225.165L348.32 226.165L348.338 227.165L392.265 226.401L392.248 225.401ZM348.32 226.165L349.277 226.457L361.851 185.226L360.895 184.935L359.938 184.643L347.364 225.873L348.32 226.165ZM360.895 184.935L360.877 183.935L291.256 185.135L291.273 186.135L291.291 187.135L360.912 185.934L360.895 184.935ZM291.273 186.135L292.23 186.427L301.647 155.558L300.69 155.267L299.734 154.975L290.317 185.843L291.273 186.135ZM300.69 155.267L301.497 155.858L414.882 1.41014L414.076 0.818359L413.27 0.226576L299.884 154.675L300.69 155.267ZM414.076 0.818359L414.094 1.81821L460.961 0.999848L460.943 0L460.926 -0.999848L414.059 -0.181488L414.076 0.818359ZM460.943 0L459.987 -0.291588L415.133 146.849L416.09 147.141L417.046 147.432L461.9 0.291588L460.943 0ZM257.255 39.5391L257.236 38.5392C251.187 38.6526 246.009 40.6294 241.781 44.4936C237.572 48.341 234.367 54.0022 232.13 61.3918L233.087 61.6816L234.044 61.9714C236.216 54.7999 239.27 49.4989 243.131 45.9698C246.973 42.4577 251.674 40.6438 257.274 40.5389L257.255 39.5391ZM233.087 61.6816L232.13 61.39L198.762 170.845L199.719 171.137L200.675 171.428L234.043 61.9732L233.087 61.6816ZM199.719 171.137L198.762 170.845C196.515 178.204 196.207 183.985 198.199 187.947C200.255 192.036 204.557 193.846 210.57 193.733L210.551 192.733L210.532 191.734C204.896 191.839 201.55 190.158 199.986 187.049C198.359 183.812 198.459 178.685 200.675 171.429L199.719 171.137ZM210.551 192.733L210.57 193.733C216.619 193.62 221.785 191.643 226.006 187.771C230.207 183.917 233.412 178.243 235.676 170.829L234.72 170.537L233.763 170.245C231.564 177.447 228.508 182.762 224.654 186.297C220.818 189.815 216.131 191.629 210.532 191.734L210.551 192.733ZM234.72 170.537L235.676 170.829L269.044 61.3727L268.088 61.0811L267.131 60.7894L233.763 170.245L234.72 170.537ZM268.088 61.0811L269.044 61.3741C271.292 54.041 271.6 48.2739 269.607 44.3179C267.55 40.2358 263.248 38.4266 257.236 38.5392L257.255 39.5391L257.274 40.5389C262.91 40.4333 266.257 42.1146 267.82 45.2178C269.447 48.447 269.347 53.56 267.132 60.788L268.088 61.0811ZM47.9014 153.631L47.9196 154.631L80.9069 154.03L80.8887 153.03L80.8705 152.03L47.8832 152.631L47.9014 153.631ZM80.8887 153.03L81.8452 153.322L106.286 73.1529L105.329 72.8613L104.373 72.5697L79.9321 152.739L80.8887 153.03ZM105.329 72.8613L104.514 72.2819L47.0864 153.051L47.9014 153.631L48.7164 154.21L106.144 73.4408L105.329 72.8613ZM339.175 148.504L339.193 149.504L372.18 148.904L372.162 147.904L372.144 146.904L339.157 147.504L339.175 148.504ZM372.162 147.904L373.119 148.196L397.559 68.026L396.603 67.7344L395.646 67.4428L371.206 147.613L372.162 147.904ZM396.603 67.7344L395.788 67.1549L338.36 147.924L339.175 148.504L339.99 149.083L397.418 68.3138L396.603 67.7344Z" fill="#A1A1A1" mask="url(#path-1-inside-1_689_10175)"/>
</svg>
