<svg width="1090" height="212" viewBox="0 0 1090 212" fill="none" xmlns="http://www.w3.org/2000/svg">
<g clip-path="url(#clip0_2002_9685)">
<path d="M669.957 131.947C695.991 90.435 751.369 0.706909 751.369 0.706909H823.142V210.591H764.712V84.1778C764.097 84.0169 763.483 83.8739 762.869 83.713C761.269 86.0549 759.594 88.3612 758.087 90.7746C734.566 128.604 683.449 211.181 683.449 211.181H657.267C657.267 211.181 603.805 126.584 582.033 91.597C580.377 88.9332 578.516 86.3767 575.315 81.6749V210.412H516.885V1.04659C519.881 0.885686 522.839 0.581765 525.798 0.563888C540.983 0.510255 556.204 0.867808 571.333 0.706909C578.106 0.635398 586.983 0.706909 586.983 0.706909C586.983 0.706909 640.742 85.8762 663.277 121.828C665.157 124.814 667.166 127.71 669.976 131.929L669.957 131.947Z" fill="white" fill-opacity="0.06"/>
<path d="M1089.59 0.70679V46.9921C1085.82 46.9921 1082.52 46.9921 1079.21 46.9921C1035.5 46.9921 991.789 46.7239 948.096 47.2424C940.43 47.3318 931.479 49.0302 925.58 53.1778C920.798 56.5567 917.597 64.6553 917.337 70.8231C916.388 93.4204 916.797 116.071 917.002 138.705C917.132 154.526 924.352 163.626 940.523 164.198C970.166 165.253 999.884 164.502 1030.51 164.502V93.2059H1089.35V211.181C1086.28 211.181 982.001 211.306 932.726 211.145C898.431 211.038 872.825 196.342 862.926 170.294C859.706 161.82 858.125 152.381 857.883 143.317C857.213 119.218 857.66 95.0831 857.66 70.9482C857.66 28.7211 883.879 1.92247 929.767 0.70679C982.02 0.70679 1033.53 0.617401 1085.61 0.653157C1086.78 0.653157 1087.51 0.70679 1089.59 0.70679Z" fill="white" fill-opacity="0.06"/>
<path d="M480.763 81.6213H423.412C423.226 77.9743 423.152 74.5418 422.873 71.1093C421.812 57.3256 415.001 48.7443 400.691 48.0649C377.245 46.9565 353.649 47.0459 330.184 48.1543C316.693 48.7979 309.082 57.7546 308.803 70.9126C308.338 94.1357 308.301 117.377 308.766 140.6C309.064 155.313 318.405 164.109 334.39 164.556C355.138 165.146 375.942 165.146 396.691 164.556C413.55 164.091 421.961 155.42 422.928 139.223C423.096 136.613 422.947 133.985 422.947 130.731H480.708C488.17 176.409 458.489 210.055 409.549 211.056C380.427 211.664 351.267 211.592 322.145 211.056C276.443 210.215 249.759 183.774 249.666 140.01C249.61 117.967 249.647 95.9414 249.647 73.8982C249.647 29.1503 272.666 3.76404 319.224 1.18965C351.937 -0.615993 384.986 -0.347828 417.681 1.869C462.025 4.87245 487.239 37.821 480.726 81.6213H480.763Z" fill="white" fill-opacity="0.06"/>
<path d="M230.112 211.181C211.652 211.181 193.955 211.288 176.631 211.288C174.249 211.288 171.625 211.181 171.625 211.181C171.625 211.181 170.267 207.033 169.876 206.032C165.466 194.93 161.577 183.613 157.874 172.279C157.334 170.616 155.771 166.326 155.771 166.326C155.771 166.326 152.31 166.308 149.295 166.326C126.686 166.558 104.058 166.326 81.449 166.326C77.6715 166.326 74.5825 166.326 74.5825 166.326L58.2443 211.27H54.0016C36.3794 211.27 18.7573 211.538 0 211.538C6.51294 193.249 12.6909 175.872 18.9061 158.513C36.6958 108.706 54.6901 58.9881 72.182 9.10938C73.2799 5.98079 75.2524 0.778381 75.2524 0.778381H154.04C154.04 0.778381 156.05 5.31931 156.478 6.49924C180.837 73.2724 229.684 209 230.093 211.163L230.112 211.181ZM137.293 114.623C129.812 93.6529 114.87 54.2863 114.87 54.2863C114.87 54.2863 100.076 94.2608 92.8932 114.623H137.274H137.293Z" fill="white" fill-opacity="0.06"/>
</g>
<defs>
<clipPath id="clip0_2002_9685">
<rect width="1089.59" height="211.538" fill="white"/>
</clipPath>
</defs>
</svg>
