<svg width="203" height="60" viewBox="0 0 203 60" fill="none" xmlns="http://www.w3.org/2000/svg">
<g clip-path="url(#clip0_291_2511)">
<path d="M124.82 25.9873C129.67 17.8107 139.987 0.137172 139.987 0.137172H153.359V41.4776H142.473V16.5783C142.359 16.5466 142.244 16.5184 142.13 16.4867C141.832 16.948 141.52 17.4023 141.239 17.8776C136.857 25.3288 127.334 41.5938 127.334 41.5938H122.456C122.456 41.5938 112.496 24.9309 108.44 18.0396C108.131 17.515 107.785 17.0114 107.188 16.0853V41.4424H96.3027V0.204077C96.8609 0.172385 97.4121 0.112522 97.9633 0.109001C100.792 0.098437 103.628 0.168864 106.446 0.137172C107.708 0.123086 109.362 0.137172 109.362 0.137172C109.362 0.137172 119.378 16.9128 123.576 23.9942C123.926 24.5823 124.3 25.1527 124.824 25.9838L124.82 25.9873Z" fill="white"/>
<path d="M203 0.137227V9.25396C202.296 9.25396 201.682 9.25396 201.065 9.25396C192.922 9.25396 184.778 9.20114 176.638 9.30326C175.21 9.32086 173.543 9.65539 172.444 10.4723C171.553 11.1379 170.956 12.733 170.908 13.9479C170.731 18.3989 170.807 22.8604 170.845 27.3184C170.87 30.4348 172.215 32.2271 175.227 32.3398C180.75 32.5476 186.286 32.3997 191.993 32.3997V18.3566H202.955V41.5939C202.383 41.5939 182.955 41.6185 173.775 41.5868C167.386 41.5657 162.615 38.6712 160.771 33.5406C160.171 31.8715 159.877 30.0122 159.831 28.2269C159.707 23.4801 159.79 18.7263 159.79 13.9725C159.79 5.65516 164.675 0.376678 173.224 0.137227C182.958 0.137227 192.554 0.11962 202.258 0.126663C202.476 0.126663 202.611 0.137227 203 0.137227Z" fill="white"/>
<path d="M89.5742 16.0749H78.8896C78.8549 15.3565 78.841 14.6804 78.789 14.0043C78.5914 11.2894 77.3226 9.59912 74.6567 9.46531C70.2885 9.24698 65.8927 9.26459 61.5211 9.48291C59.0077 9.60968 57.5898 11.3739 57.5378 13.9656C57.4511 18.5398 57.4442 23.1175 57.5308 27.6917C57.5863 30.5898 59.3266 32.3223 62.3046 32.4103C66.17 32.5265 70.0459 32.5265 73.9113 32.4103C77.0522 32.3188 78.6192 30.6109 78.7994 27.4206C78.8307 26.9065 78.8029 26.3888 78.8029 25.748H89.5638C90.9539 34.745 85.4244 41.3721 76.3068 41.5693C70.8814 41.689 65.4489 41.6749 60.0234 41.5693C51.5091 41.4038 46.5377 36.1958 46.5204 27.5755C46.51 23.2337 46.5169 18.8954 46.5169 14.5536C46.5169 5.73974 50.8053 0.739443 59.4792 0.23237C65.5737 -0.123284 71.7307 -0.0704643 77.8218 0.366181C86.0831 0.957765 90.7806 7.44758 89.5672 16.0749H89.5742Z" fill="white"/>
<path d="M42.8769 41.5939C39.4378 41.5939 36.1409 41.6151 32.9134 41.6151C32.4696 41.6151 31.9808 41.5939 31.9808 41.5939C31.9808 41.5939 31.7278 40.777 31.6549 40.5798C30.8333 38.393 30.1088 36.164 29.4189 33.9315C29.3183 33.604 29.0271 32.7589 29.0271 32.7589C29.0271 32.7589 28.3823 32.7554 27.8207 32.7589C23.6086 32.8047 19.393 32.7589 15.1809 32.7589C14.4771 32.7589 13.9016 32.7589 13.9016 32.7589L10.8578 41.6115H10.0674C6.78437 41.6115 3.50134 41.6644 0.00683594 41.6644C1.2202 38.062 2.37117 34.6393 3.52907 31.2201C6.8433 21.4097 10.1957 11.6168 13.4544 1.79231C13.659 1.17608 14.0264 0.151367 14.0264 0.151367H28.7047C28.7047 0.151367 29.0791 1.04579 29.1589 1.27819C33.6969 14.4304 42.7971 41.1643 42.8734 41.5904L42.8769 41.5939ZM25.5846 22.5752C24.191 18.4447 21.4072 10.6907 21.4072 10.6907C21.4072 10.6907 18.6511 18.5644 17.3129 22.5752H25.5812H25.5846Z" fill="white"/>
<path d="M5.47056 54.9291H2.58621L1.91366 57.2954H0.34668L3.16516 48.5449H4.95748L7.76209 57.2954H6.14311L5.47056 54.9291ZM5.12735 53.7107L4.82574 52.6402C4.56227 51.7176 4.29879 50.7141 4.04919 49.7492H3.99718C3.76144 50.7246 3.50837 51.7141 3.2345 52.6402L2.93289 53.7107H5.13428H5.12735Z" fill="white"/>
<path d="M8.85424 55.556C9.43319 56.0103 9.98787 56.292 10.6466 56.292C11.3434 56.292 11.6727 55.9575 11.6727 55.5032C11.6727 54.9539 10.9759 54.7144 10.2895 54.4468C9.43319 54.1264 8.4729 53.6299 8.4729 52.5347C8.4729 51.4396 9.38119 50.5698 10.8303 50.5698C11.7247 50.5698 12.4493 50.9431 12.9762 51.3586L12.2794 52.2953C11.8322 51.9607 11.3711 51.7319 10.858 51.7319C10.2132 51.7319 9.90814 52.0382 9.90814 52.4537C9.90814 52.9608 10.553 53.1756 11.2532 53.4291C12.1373 53.7637 13.1114 54.1933 13.1114 55.4222C13.1114 56.5455 12.2274 57.4576 10.5946 57.4576C9.71053 57.4576 8.77797 57.0702 8.14355 56.549L8.85424 55.5596V55.556Z" fill="white"/>
<path d="M14.415 48.7071C14.415 48.1859 14.8102 47.8232 15.3511 47.8232C15.8919 47.8232 16.2871 48.1859 16.2871 48.7071C16.2871 49.2283 15.8919 49.5769 15.3511 49.5769C14.8102 49.5769 14.415 49.2142 14.415 48.7071ZM14.5849 50.7283H16.0999V57.2992H14.5849V50.7283Z" fill="white"/>
<path d="M21.6844 53.0948C21.6706 52.3976 21.3828 51.8095 20.5127 51.8095C19.8679 51.8095 19.2612 52.1053 18.6961 52.4504L18.1414 51.4187C18.8521 50.9644 19.7604 50.563 20.79 50.563C22.409 50.563 23.1994 51.5666 23.1994 53.3977V57.2923H21.9618L21.8439 56.5704H21.8058C21.2268 57.0669 20.5681 57.4542 19.802 57.4542C18.6684 57.4542 17.8779 56.6795 17.8779 55.5281C17.8779 54.1231 19.0358 53.3871 21.6844 53.0913V53.0948ZM20.2735 56.2535C20.8004 56.2535 21.2095 55.9858 21.6844 55.5316V54.0597C19.9337 54.2886 19.3548 54.7569 19.3548 55.4119C19.3548 55.9999 19.7361 56.2535 20.2769 56.2535H20.2735Z" fill="white"/>
<path d="M31.6199 48.3867C32.6738 48.3867 33.5301 48.9079 34.0709 49.4959L33.2285 50.4608C32.7813 50.0206 32.2925 49.7389 31.6338 49.7389C30.2228 49.7389 29.2105 50.9432 29.2105 52.9081C29.2105 54.873 30.1466 56.1055 31.5818 56.1055C32.3445 56.1055 32.913 55.785 33.3984 55.2357L34.2408 56.1865C33.544 57.0034 32.6461 57.4577 31.5541 57.4577C29.3665 57.4577 27.6436 55.8519 27.6436 52.9504C27.6436 50.0488 29.4081 48.3867 31.6199 48.3867Z" fill="white"/>
<path d="M38.2976 50.5664C39.9166 50.5664 41.3795 51.8235 41.3795 54.0173C41.3795 56.2111 39.9166 57.4541 38.2976 57.4541C36.6786 57.4541 35.2295 56.197 35.2295 54.0173C35.2295 51.8376 36.6925 50.5664 38.2976 50.5664ZM38.2976 56.2005C39.2475 56.2005 39.8264 55.3308 39.8264 54.0208C39.8264 52.7109 39.2475 51.827 38.2976 51.827C37.3477 51.827 36.7826 52.6968 36.7826 54.0208C36.7826 55.3449 37.3477 56.2005 38.2976 56.2005Z" fill="white"/>
<path d="M43.0015 50.7283H44.253L44.357 51.6121H44.409C44.988 51.0382 45.6467 50.5698 46.5307 50.5698C47.9139 50.5698 48.5206 51.5206 48.5206 53.1791V57.2991H47.0056V53.3798C47.0056 52.2953 46.704 51.8938 45.9899 51.8938C45.4248 51.8938 45.0538 52.1756 44.513 52.7108V57.2991H42.998V50.7283H43.0015Z" fill="white"/>
<path d="M50.5632 55.556C51.1422 56.0103 51.6969 56.292 52.3555 56.292C53.0524 56.292 53.3817 55.9575 53.3817 55.5032C53.3817 54.9539 52.6849 54.7144 51.9985 54.4468C51.1422 54.1264 50.1819 53.6299 50.1819 52.5347C50.1819 51.4396 51.0902 50.5698 52.5393 50.5698C53.4337 50.5698 54.1583 50.9431 54.6852 51.3586L53.9884 52.2953C53.5412 51.9607 53.0801 51.7319 52.567 51.7319C51.9222 51.7319 51.6171 52.0382 51.6171 52.4537C51.6171 52.9608 52.2619 53.1756 52.9622 53.4291C53.8463 53.7637 54.8204 54.1933 54.8204 55.4222C54.8204 56.5455 53.9364 57.4576 52.3035 57.4576C51.4195 57.4576 50.487 57.0702 49.8525 56.549L50.5632 55.5596V55.556Z" fill="white"/>
<path d="M56.5188 51.9468H55.5967V50.7953L56.5986 50.7284L56.7823 48.936H58.0477V50.7284H59.6944V51.9468H58.0477V55.0772C58.0477 55.8519 58.3389 56.2287 58.956 56.2287C59.1813 56.2287 59.4448 56.1618 59.6285 56.0808L59.892 57.2182C59.5349 57.3379 59.0877 57.4577 58.5746 57.4577C57.0735 57.4577 56.5188 56.4928 56.5188 55.0772V51.9468Z" fill="white"/>
<path d="M61.1675 50.7283H62.419L62.523 51.8938H62.575C63.0361 51.0382 63.7225 50.5698 64.4055 50.5698C64.7348 50.5698 64.9463 50.6086 65.1439 50.7036L64.8804 52.0417C64.6551 51.9748 64.4852 51.9361 64.2079 51.9361C63.6948 51.9361 63.0743 52.2988 62.679 53.2883V57.3026H61.1641V50.7318L61.1675 50.7283Z" fill="white"/>
<path d="M66.1357 50.7285H67.6507V54.6478C67.6507 55.7323 67.9523 56.1338 68.6526 56.1338C69.2177 56.1338 69.6025 55.8661 70.0879 55.2253V50.7285H71.6028V57.2993H70.3652L70.2473 56.3345H70.2092C69.6441 57.0176 69.0097 57.4578 68.1291 57.4578C66.7459 57.4578 66.1392 56.507 66.1392 54.8485V50.7285H66.1357Z" fill="white"/>
<path d="M76.4626 50.5665C77.2911 50.5665 77.9255 50.901 78.3589 51.3306L77.6343 52.306C77.2911 51.9997 76.9479 51.8236 76.5423 51.8236C75.5023 51.8236 74.7777 52.6934 74.7777 54.0174C74.7777 55.3414 75.4884 56.1971 76.5042 56.1971C77.0311 56.1971 77.4783 55.9295 77.8354 55.6337L78.4664 56.6091C77.8597 57.1584 77.0831 57.4507 76.3447 57.4507C74.5801 57.4507 73.2246 56.1936 73.2246 54.0139C73.2246 51.8342 74.7396 50.563 76.466 50.563L76.4626 50.5665Z" fill="white"/>
<path d="M80.0716 51.9468H79.1494V50.7953L80.1513 50.7284L80.335 48.936H81.6004V50.7284H83.2471V51.9468H81.6004V55.0772C81.6004 55.8519 81.8916 56.2287 82.5087 56.2287C82.7341 56.2287 82.9975 56.1618 83.1813 56.0808L83.4447 57.2182C83.0877 57.3379 82.6404 57.4577 82.1274 57.4577C80.6263 57.4577 80.0716 56.4928 80.0716 55.0772V51.9468Z" fill="white"/>
<path d="M84.5508 48.7071C84.5508 48.1859 84.946 47.8232 85.4868 47.8232C86.0276 47.8232 86.4228 48.1859 86.4228 48.7071C86.4228 49.2283 86.0276 49.5769 85.4868 49.5769C84.946 49.5769 84.5508 49.2142 84.5508 48.7071ZM84.7207 50.7283H86.2356V57.2992H84.7207V50.7283Z" fill="white"/>
<path d="M90.9402 50.5664C92.5591 50.5664 94.0221 51.8235 94.0221 54.0173C94.0221 56.2111 92.5591 57.4541 90.9402 57.4541C89.3212 57.4541 87.8721 56.197 87.8721 54.0173C87.8721 51.8376 89.335 50.5664 90.9402 50.5664ZM90.9402 56.2005C91.8901 56.2005 92.469 55.3308 92.469 54.0208C92.469 52.7109 91.8901 51.827 90.9402 51.827C89.9903 51.827 89.4252 52.6968 89.4252 54.0208C89.4252 55.3449 89.9903 56.2005 90.9402 56.2005Z" fill="white"/>
<path d="M95.6412 50.7283H96.8927L96.9967 51.6121H97.0487C97.6276 51.0382 98.2863 50.5698 99.1703 50.5698C100.554 50.5698 101.16 51.5206 101.16 53.1791V57.2991H99.6453V53.3798C99.6453 52.2953 99.3437 51.8938 98.6295 51.8938C98.0644 51.8938 97.6935 52.1756 97.1527 52.7108V57.2991H95.6377V50.7283H95.6412Z" fill="white"/>
<path d="M106.076 48.5449H107.751L109.304 52.8515L109.869 54.5101H109.921L110.486 52.8515L112.001 48.5449H113.686V57.2954H112.25V53.2952C112.25 52.4783 112.368 51.3162 112.448 50.5133H112.396L111.699 52.5064L110.212 56.4785H109.515L108.028 52.5064L107.342 50.5133H107.29C107.355 51.3162 107.473 52.4783 107.473 53.2952V57.2954H106.076V48.5449Z" fill="white"/>
<path d="M119.381 53.0948C119.367 52.3976 119.08 51.8095 118.209 51.8095C117.565 51.8095 116.958 52.1053 116.393 52.4504L115.838 51.4187C116.549 50.9644 117.457 50.563 118.487 50.563C120.106 50.563 120.896 51.5666 120.896 53.3977V57.2923H119.659L119.541 56.5704H119.502C118.924 57.0669 118.265 57.4542 117.502 57.4542C116.369 57.4542 115.578 56.6795 115.578 55.5281C115.578 54.1231 116.736 53.3871 119.385 53.0913L119.381 53.0948ZM117.97 56.2535C118.497 56.2535 118.906 55.9858 119.381 55.5316V54.0597C117.63 54.2886 117.052 54.7569 117.052 55.4119C117.052 55.9999 117.433 56.2535 117.974 56.2535H117.97Z" fill="white"/>
<path d="M125.677 50.5665C126.506 50.5665 127.14 50.901 127.574 51.3306L126.849 52.306C126.506 51.9997 126.163 51.8236 125.757 51.8236C124.717 51.8236 123.993 52.6934 123.993 54.0174C123.993 55.3414 124.703 56.1971 125.719 56.1971C126.246 56.1971 126.693 55.9295 127.05 55.6337L127.681 56.6091C127.075 57.1584 126.298 57.4507 125.56 57.4507C123.795 57.4507 122.439 56.1936 122.439 54.0139C122.439 51.8342 123.954 50.563 125.681 50.563L125.677 50.5665Z" fill="white"/>
<path d="M129.064 47.8516H130.579V50.2883L130.527 51.5595C131.068 51.0384 131.713 50.57 132.593 50.57C133.976 50.57 134.583 51.5208 134.583 53.1793V57.2993H133.068V53.3801C133.068 52.2955 132.767 51.8941 132.052 51.8941C131.487 51.8941 131.116 52.1758 130.576 52.711V57.2993H129.061V47.8551L129.064 47.8516Z" fill="white"/>
<path d="M136.361 48.7071C136.361 48.1859 136.757 47.8232 137.297 47.8232C137.838 47.8232 138.233 48.1859 138.233 48.7071C138.233 49.2283 137.838 49.5769 137.297 49.5769C136.757 49.5769 136.361 49.2142 136.361 48.7071ZM136.531 50.7283H138.046V57.2992H136.531V50.7283Z" fill="white"/>
<path d="M140.102 50.7283H141.354L141.458 51.6121H141.51C142.089 51.0382 142.747 50.5698 143.631 50.5698C145.015 50.5698 145.621 51.5206 145.621 53.1791V57.2991H144.106V53.3798C144.106 52.2953 143.805 51.8938 143.09 51.8938C142.525 51.8938 142.154 52.1756 141.614 52.7108V57.2991H140.099V50.7283H140.102Z" fill="white"/>
<path d="M150.156 50.5664C151.907 50.5664 152.829 51.8517 152.829 53.6828C152.829 53.9786 152.801 54.2462 152.763 54.4047H148.655C148.787 55.5949 149.525 56.2639 150.565 56.2639C151.12 56.2639 151.591 56.0914 152.066 55.7815L152.579 56.7463C151.959 57.1619 151.182 57.4541 150.368 57.4541C148.575 57.4541 147.182 56.1829 147.182 54.0173C147.182 51.8517 148.645 50.5664 150.16 50.5664H150.156ZM151.512 53.4292C151.512 52.3869 151.078 51.7566 150.194 51.7566C149.432 51.7566 148.773 52.3306 148.641 53.4292H151.512Z" fill="white"/>
<path d="M154.396 50.7283H155.648L155.752 51.8938H155.804C156.265 51.0382 156.951 50.5698 157.634 50.5698C157.963 50.5698 158.175 50.6086 158.372 50.7036L158.109 52.0417C157.884 51.9748 157.714 51.9361 157.436 51.9361C156.923 51.9361 156.303 52.2988 155.908 53.2883V57.3026H154.393V50.7318L154.396 50.7283Z" fill="white"/>
<path d="M159.915 58.7533C160.601 58.7533 160.997 58.2849 161.205 57.6299L161.322 57.2144L158.781 50.7246H160.324L161.444 53.9502C161.627 54.5241 161.811 55.1826 162.009 55.7953H162.061C162.22 55.1932 162.39 54.5382 162.55 53.9502L163.524 50.7246H164.987L162.643 57.5877C162.102 59.0737 161.43 59.9963 160.022 59.9963C159.665 59.9963 159.416 59.9435 159.18 59.8625L159.457 58.6582C159.575 58.6969 159.759 58.7533 159.918 58.7533H159.915Z" fill="white"/>
<path d="M172.812 48.3868C174.011 48.3868 174.84 48.9362 175.381 49.496L174.538 50.4609C174.105 50.0313 173.63 49.739 172.826 49.739C171.297 49.739 170.271 50.9433 170.271 52.9082C170.271 54.8731 171.193 56.1056 172.919 56.1056C173.394 56.1056 173.869 55.9718 174.143 55.7182V53.8308H172.524V52.5596H175.512V56.4119C174.92 56.9754 173.904 57.4543 172.732 57.4543C170.441 57.4543 168.7 55.8485 168.7 52.947C168.7 50.0454 170.493 48.3833 172.808 48.3833L172.812 48.3868Z" fill="white"/>
<path d="M177.384 50.7283H178.636L178.74 51.8938H178.792C179.253 51.0382 179.939 50.5698 180.622 50.5698C180.952 50.5698 181.163 50.6086 181.361 50.7036L181.097 52.0417C180.872 51.9748 180.702 51.9361 180.425 51.9361C179.912 51.9361 179.291 52.2988 178.896 53.2883V57.3026H177.381V50.7318L177.384 50.7283Z" fill="white"/>
<path d="M184.931 50.5664C186.55 50.5664 188.013 51.8235 188.013 54.0173C188.013 56.2111 186.55 57.4541 184.931 57.4541C183.312 57.4541 181.863 56.197 181.863 54.0173C181.863 51.8376 183.326 50.5664 184.931 50.5664ZM184.931 56.2005C185.881 56.2005 186.46 55.3308 186.46 54.0208C186.46 52.7109 185.881 51.827 184.931 51.827C183.981 51.827 183.416 52.6968 183.416 54.0208C183.416 55.3449 183.981 56.2005 184.931 56.2005Z" fill="white"/>
<path d="M189.569 50.7285H191.084V54.6478C191.084 55.7323 191.386 56.1338 192.086 56.1338C192.651 56.1338 193.036 55.8661 193.521 55.2253V50.7285H195.036V57.2993H193.799L193.681 56.3345H193.643C193.078 57.0176 192.443 57.4578 191.563 57.4578C190.179 57.4578 189.573 56.507 189.573 54.8485V50.7285H189.569Z" fill="white"/>
<path d="M198.594 57.8309V59.8909H197.079V50.7249H198.331L198.435 51.4221H198.487C199.027 50.9538 199.724 50.5664 200.435 50.5664C202.044 50.5664 202.976 51.8763 202.976 53.9117C202.976 56.1583 201.645 57.4577 200.21 57.4577C199.645 57.4577 199.076 57.19 198.549 56.7358L198.587 57.8344L198.594 57.8309ZM199.898 56.1865C200.754 56.1865 201.413 55.4118 201.413 53.9258C201.413 52.6158 200.99 51.8376 200.015 51.8376C199.541 51.8376 199.093 52.0771 198.594 52.5736V55.6371C199.069 56.0386 199.516 56.1865 199.898 56.1865Z" fill="white"/>
</g>
<defs>
<clipPath id="clip0_291_2511">
<rect width="203" height="60" fill="white"/>
</clipPath>
</defs>
</svg>
