<svg width="186" height="55" viewBox="0 0 186 55" fill="none" xmlns="http://www.w3.org/2000/svg">
<g clip-path="url(#clip0_282_4020)">
<path d="M114.368 23.8218C118.812 16.3267 128.265 0.125891 128.265 0.125891H140.516V38.0213H130.542V15.1969C130.437 15.1679 130.333 15.142 130.228 15.113C129.955 15.5358 129.669 15.9522 129.411 16.388C125.396 23.2182 116.671 38.1278 116.671 38.1278H112.201C112.201 38.1278 103.075 22.8535 99.359 16.5365C99.0763 16.0555 98.7587 15.5939 98.2123 14.745V37.989H88.2383V0.187221C88.7497 0.15817 89.2547 0.103296 89.7598 0.100068C92.3518 0.090384 94.9501 0.154942 97.5326 0.125891C98.6888 0.112979 100.204 0.125891 100.204 0.125891C100.204 0.125891 109.381 15.5036 113.227 21.9948C113.548 22.5339 113.891 23.0568 114.371 23.8186L114.368 23.8218Z" fill="black"/>
<path d="M186 0.125889V8.48289C185.355 8.48289 184.793 8.48289 184.227 8.48289C176.766 8.48289 169.305 8.43447 161.846 8.52808C160.538 8.54422 159.01 8.85087 158.003 9.59974C157.186 10.2098 156.64 11.672 156.596 12.7857C156.434 16.8657 156.503 20.9555 156.538 25.042C156.561 27.8986 157.793 29.5416 160.553 29.6449C165.613 29.8354 170.686 29.6998 175.915 29.6998V16.827H185.959V38.1278C185.435 38.1278 167.634 38.1504 159.222 38.1214C153.368 38.102 148.997 35.4487 147.308 30.7456C146.758 29.2156 146.488 27.5113 146.447 25.8748C146.332 21.5236 146.409 17.1659 146.409 12.8083C146.409 5.18399 150.884 0.345386 158.717 0.125889C167.637 0.125889 176.429 0.10975 185.32 0.116206C185.52 0.116206 185.644 0.125889 186 0.125889Z" fill="black"/>
<path d="M82.0727 14.7353H72.2829C72.2511 14.0769 72.2384 13.4571 72.1908 12.8373C72.0097 10.3486 70.8471 8.79926 68.4044 8.6766C64.4021 8.47647 60.3744 8.49261 56.3689 8.69274C54.066 8.80894 52.7668 10.4261 52.7191 12.8018C52.6397 16.9949 52.6334 21.1911 52.7128 25.3841C52.7636 28.0407 54.3582 29.6288 57.0868 29.7095C60.6285 29.816 64.1798 29.816 67.7215 29.7095C70.5994 29.6256 72.0351 28.0601 72.2003 25.1356C72.2289 24.6643 72.2035 24.1898 72.2035 23.6024H82.0632C83.3369 31.8496 78.2705 37.9245 69.9164 38.1053C64.9453 38.215 59.9678 38.2021 54.9967 38.1053C47.1953 37.9536 42.6403 33.1795 42.6244 25.2776C42.6149 21.2976 42.6212 17.3209 42.6212 13.3409C42.6212 5.26149 46.5505 0.677888 54.498 0.213072C60.0821 -0.112944 65.7235 -0.0645261 71.3045 0.335732C78.874 0.878017 83.1781 6.82702 82.0663 14.7353H82.0727Z" fill="black"/>
<path d="M39.2868 38.1278C36.1357 38.1278 33.1149 38.1472 30.1577 38.1472C29.7511 38.1472 29.3032 38.1278 29.3032 38.1278C29.3032 38.1278 29.0713 37.379 29.0046 37.1982C28.2518 35.1937 27.5879 33.1504 26.9558 31.1039C26.8637 30.8037 26.5969 30.0291 26.5969 30.0291C26.5969 30.0291 26.0061 30.0258 25.4915 30.0291C21.6321 30.071 17.7695 30.0291 13.9101 30.0291C13.2653 30.0291 12.738 30.0291 12.738 30.0291L9.94911 38.144H9.22488C6.21679 38.144 3.20869 38.1924 0.00683594 38.1924C1.11859 34.8903 2.17317 31.7527 3.23411 28.6185C6.27079 19.6256 9.34241 10.6488 12.3283 1.643C12.5157 1.07812 12.8524 0.138802 12.8524 0.138802H26.3015C26.3015 0.138802 26.6445 0.958685 26.7176 1.17173C30.8755 13.2279 39.2137 37.734 39.2836 38.1246L39.2868 38.1278ZM23.4427 20.694C22.1657 16.9077 19.615 9.79987 19.615 9.79987C19.615 9.79987 17.0898 17.0174 15.8637 20.694H23.4395H23.4427Z" fill="black"/>
<path d="M5.01217 50.3518H2.36937L1.75314 52.521H0.317383L2.89983 44.4997H4.54206L7.1118 52.521H5.6284L5.01217 50.3518ZM4.6977 49.235L4.42135 48.2537C4.17994 47.408 3.93853 46.4881 3.70983 45.6036H3.66218C3.44618 46.4977 3.2143 47.4048 2.96336 48.2537L2.68701 49.235H4.70406H4.6977Z" fill="black"/>
<path d="M8.11211 50.9264C8.64258 51.3428 9.15081 51.601 9.75433 51.601C10.3928 51.601 10.6946 51.2944 10.6946 50.878C10.6946 50.3744 10.0561 50.1549 9.42716 49.9096C8.64258 49.6159 7.7627 49.1608 7.7627 48.1569C7.7627 47.153 8.59493 46.3557 9.92268 46.3557C10.7422 46.3557 11.4061 46.6979 11.8889 47.0788L11.2504 47.9374C10.8407 47.6307 10.4182 47.4209 9.9481 47.4209C9.35728 47.4209 9.07775 47.7018 9.07775 48.0826C9.07775 48.5475 9.66857 48.7444 10.3102 48.9768C11.1202 49.2834 12.0128 49.6772 12.0128 50.8038C12.0128 51.8334 11.2028 52.6695 9.70669 52.6695C8.89669 52.6695 8.04223 52.3144 7.46094 51.8367L8.11211 50.9296V50.9264Z" fill="black"/>
<path d="M13.207 44.6482C13.207 44.1704 13.5691 43.838 14.0647 43.838C14.5602 43.838 14.9223 44.1704 14.9223 44.6482C14.9223 45.1259 14.5602 45.4455 14.0647 45.4455C13.5691 45.4455 13.207 45.113 13.207 44.6482ZM13.3627 46.501H14.7508V52.5242H13.3627V46.501Z" fill="black"/>
<path d="M19.8686 48.6701C19.8559 48.031 19.5922 47.4919 18.795 47.4919C18.2041 47.4919 17.6483 47.7631 17.1305 48.0794L16.6223 47.1336C17.2734 46.7172 18.1057 46.3493 19.0491 46.3493C20.5325 46.3493 21.2567 47.2692 21.2567 48.9477V52.5178H20.1227L20.0147 51.856H19.9798C19.4493 52.3112 18.8458 52.6662 18.1438 52.6662C17.1051 52.6662 16.3809 51.9561 16.3809 50.9006C16.3809 49.6127 17.4418 48.938 19.8686 48.6669V48.6701ZM18.5758 51.5655C19.0586 51.5655 19.4334 51.3202 19.8686 50.9038V49.5546C18.2645 49.7644 17.734 50.1937 17.734 50.7941C17.734 51.3331 18.0834 51.5655 18.579 51.5655H18.5758Z" fill="black"/>
<path d="M28.9715 44.3544C29.9371 44.3544 30.7217 44.8322 31.2173 45.3712L30.4454 46.2557C30.0356 45.8522 29.5877 45.5939 28.9842 45.5939C27.6914 45.5939 26.7639 46.6979 26.7639 48.499C26.7639 50.3002 27.6215 51.43 28.9366 51.43C29.6354 51.43 30.1563 51.1362 30.601 50.6327L31.3729 51.5042C30.7344 52.2531 29.9117 52.6695 28.9112 52.6695C26.9068 52.6695 25.3281 51.1976 25.3281 48.5378C25.3281 45.878 26.9449 44.3544 28.9715 44.3544Z" fill="black"/>
<path d="M35.0895 46.3525C36.5729 46.3525 37.9133 47.5048 37.9133 49.5158C37.9133 51.5268 36.5729 52.6662 35.0895 52.6662C33.6061 52.6662 32.2783 51.5139 32.2783 49.5158C32.2783 47.5178 33.6188 46.3525 35.0895 46.3525ZM35.0895 51.5171C35.9598 51.5171 36.4903 50.7198 36.4903 49.5191C36.4903 48.3183 35.9598 47.5081 35.0895 47.5081C34.2191 47.5081 33.7014 48.3054 33.7014 49.5191C33.7014 50.7327 34.2191 51.5171 35.0895 51.5171Z" fill="black"/>
<path d="M39.3997 46.501H40.5464L40.6417 47.3112H40.6893C41.2198 46.785 41.8233 46.3557 42.6333 46.3557C43.9007 46.3557 44.4566 47.2272 44.4566 48.7476V52.5242H43.0685V48.9316C43.0685 47.9374 42.7921 47.5694 42.1378 47.5694C41.62 47.5694 41.2801 47.8276 40.7846 48.3183V52.5242H39.3965V46.501H39.3997Z" fill="black"/>
<path d="M46.3289 50.9264C46.8594 51.3428 47.3676 51.601 47.9711 51.601C48.6096 51.601 48.9114 51.2944 48.9114 50.878C48.9114 50.3744 48.2729 50.1549 47.644 49.9096C46.8594 49.6159 45.9795 49.1607 45.9795 48.1569C45.9795 47.153 46.8117 46.3557 48.1395 46.3557C48.959 46.3557 49.6229 46.6979 50.1057 47.0788L49.4672 47.9374C49.0575 47.6307 48.635 47.4209 48.1649 47.4209C47.5741 47.4209 47.2945 47.7017 47.2945 48.0826C47.2945 48.5475 47.8854 48.7443 48.527 48.9768C49.337 49.2834 50.2296 49.6772 50.2296 50.8037C50.2296 51.8334 49.4196 52.6695 47.9235 52.6695C47.1135 52.6695 46.259 52.3144 45.6777 51.8367L46.3289 50.9296V50.9264Z" fill="black"/>
<path d="M51.7854 47.6178H50.9404V46.5623L51.8584 46.501L52.0268 44.858H53.1862V46.501H54.695V47.6178H53.1862V50.4874C53.1862 51.1976 53.453 51.5429 54.0184 51.5429C54.2249 51.5429 54.4663 51.4816 54.6346 51.4074L54.876 52.45C54.5489 52.5597 54.1391 52.6695 53.669 52.6695C52.2936 52.6695 51.7854 51.785 51.7854 50.4874V47.6178Z" fill="black"/>
<path d="M56.0452 46.501H57.1919L57.2872 47.5694H57.3348C57.7573 46.785 58.3862 46.3557 59.012 46.3557C59.3137 46.3557 59.5075 46.3912 59.6886 46.4784L59.4471 47.705C59.2407 47.6436 59.085 47.6081 58.8309 47.6081C58.3608 47.6081 57.7922 47.9406 57.4301 48.8477V52.5274H56.042V46.5042L56.0452 46.501Z" fill="black"/>
<path d="M60.5967 46.501H61.9848V50.0936C61.9848 51.0878 62.2611 51.4558 62.9028 51.4558C63.4205 51.4558 63.7731 51.2105 64.2178 50.623V46.501H65.6059V52.5242H64.4719L64.3639 51.6398H64.329C63.8112 52.266 63.23 52.6695 62.4231 52.6695C61.1557 52.6695 60.5999 51.7979 60.5999 50.2776V46.501H60.5967Z" fill="black"/>
<path d="M70.0586 46.3525C70.8178 46.3525 71.3991 46.6591 71.7961 47.0529L71.1322 47.9471C70.8178 47.6662 70.5033 47.5048 70.1317 47.5048C69.1787 47.5048 68.5148 48.3021 68.5148 49.5158C68.5148 50.7295 69.166 51.5139 70.0967 51.5139C70.5795 51.5139 70.9893 51.2686 71.3165 50.9974L71.8946 51.8915C71.3387 52.3951 70.6272 52.663 69.9506 52.663C68.3338 52.663 67.0918 51.5107 67.0918 49.5126C67.0918 47.5145 68.4799 46.3493 70.0618 46.3493L70.0586 46.3525Z" fill="black"/>
<path d="M73.3654 47.6178H72.5205V46.5623L73.4385 46.501L73.6069 44.858H74.7663V46.501H76.2751V47.6178H74.7663V50.4874C74.7663 51.1976 75.0331 51.5429 75.5985 51.5429C75.805 51.5429 76.0464 51.4816 76.2147 51.4074L76.4561 52.45C76.129 52.5597 75.7192 52.6695 75.2491 52.6695C73.8737 52.6695 73.3654 51.785 73.3654 50.4874V47.6178Z" fill="black"/>
<path d="M77.4697 44.6482C77.4697 44.1704 77.8318 43.838 78.3274 43.838C78.8229 43.838 79.185 44.1704 79.185 44.6482C79.185 45.1259 78.8229 45.4455 78.3274 45.4455C77.8318 45.4455 77.4697 45.113 77.4697 44.6482ZM77.6254 46.501H79.0135V52.5242H77.6254V46.501Z" fill="black"/>
<path d="M83.3239 46.3525C84.8073 46.3525 86.1477 47.5048 86.1477 49.5158C86.1477 51.5268 84.8073 52.6662 83.3239 52.6662C81.8405 52.6662 80.5127 51.5139 80.5127 49.5158C80.5127 47.5178 81.8532 46.3525 83.3239 46.3525ZM83.3239 51.5171C84.1942 51.5171 84.7247 50.7198 84.7247 49.5191C84.7247 48.3183 84.1942 47.5081 83.3239 47.5081C82.4535 47.5081 81.9357 48.3054 81.9357 49.5191C81.9357 50.7327 82.4535 51.5171 83.3239 51.5171Z" fill="black"/>
<path d="M87.6311 46.501H88.7778L88.8731 47.3112H88.9207C89.4512 46.785 90.0547 46.3557 90.8647 46.3557C92.1321 46.3557 92.688 47.2273 92.688 48.7476V52.5242H91.2999V48.9316C91.2999 47.9374 91.0236 47.5694 90.3692 47.5694C89.8514 47.5694 89.5116 47.8276 89.016 48.3183V52.5242H87.6279V46.501H87.6311Z" fill="black"/>
<path d="M97.1924 44.4997H98.7266L100.15 48.4474L100.667 49.9677H100.715L101.233 48.4474L102.621 44.4997H104.165V52.521H102.85V48.8541C102.85 48.1052 102.958 47.04 103.031 46.3041H102.983L102.345 48.1311L100.982 51.7721H100.343L98.9807 48.1311L98.3518 46.3041H98.3041C98.3645 47.04 98.4725 48.1052 98.4725 48.8541V52.521H97.1924V44.4997Z" fill="black"/>
<path d="M109.383 48.6701C109.37 48.031 109.107 47.4919 108.309 47.4919C107.719 47.4919 107.163 47.7631 106.645 48.0794L106.137 47.1336C106.788 46.7172 107.62 46.3493 108.563 46.3493C110.047 46.3493 110.771 47.2692 110.771 48.9477V52.5178H109.637L109.529 51.856H109.494C108.964 52.3112 108.36 52.6662 107.661 52.6662C106.623 52.6662 105.898 51.9561 105.898 50.9006C105.898 49.6127 106.959 48.938 109.386 48.6669L109.383 48.6701ZM108.09 51.5655C108.573 51.5655 108.948 51.3202 109.383 50.9038V49.5546C107.779 49.7644 107.248 50.1937 107.248 50.7941C107.248 51.3331 107.598 51.5655 108.093 51.5655H108.09Z" fill="black"/>
<path d="M115.152 46.3525C115.912 46.3525 116.493 46.6591 116.89 47.0529L116.226 47.9471C115.912 47.6662 115.597 47.5048 115.225 47.5048C114.272 47.5048 113.609 48.3021 113.609 49.5158C113.609 50.7295 114.26 51.5139 115.19 51.5139C115.673 51.5139 116.083 51.2686 116.41 50.9974L116.988 51.8915C116.432 52.3951 115.721 52.663 115.044 52.663C113.428 52.663 112.186 51.5107 112.186 49.5126C112.186 47.5145 113.574 46.3493 115.156 46.3493L115.152 46.3525Z" fill="black"/>
<path d="M118.255 43.8638H119.643V46.0975L119.596 47.2628C120.091 46.785 120.682 46.3557 121.489 46.3557C122.756 46.3557 123.312 47.2272 123.312 48.7476V52.5242H121.924V48.9316C121.924 47.9374 121.648 47.5694 120.993 47.5694C120.475 47.5694 120.136 47.8276 119.64 48.3183V52.5242H118.252V43.867L118.255 43.8638Z" fill="black"/>
<path d="M124.941 44.6482C124.941 44.1704 125.304 43.838 125.799 43.838C126.295 43.838 126.657 44.1704 126.657 44.6482C126.657 45.1259 126.295 45.4455 125.799 45.4455C125.304 45.4455 124.941 45.113 124.941 44.6482ZM125.097 46.501H126.485V52.5242H125.097V46.501Z" fill="black"/>
<path d="M128.369 46.501H129.516L129.611 47.3112H129.659C130.189 46.785 130.793 46.3557 131.603 46.3557C132.87 46.3557 133.426 47.2272 133.426 48.7476V52.5242H132.038V48.9316C132.038 47.9374 131.762 47.5694 131.107 47.5694C130.59 47.5694 130.25 47.8276 129.754 48.3183V52.5242H128.366V46.501H128.369Z" fill="black"/>
<path d="M137.581 46.3525C139.185 46.3525 140.03 47.5307 140.03 49.2092C140.03 49.4803 140.004 49.7256 139.97 49.8709H136.205C136.326 50.9619 137.003 51.5752 137.956 51.5752C138.464 51.5752 138.896 51.4171 139.331 51.133L139.801 52.0174C139.233 52.3983 138.521 52.6662 137.775 52.6662C136.132 52.6662 134.855 51.501 134.855 49.5158C134.855 47.5307 136.196 46.3525 137.584 46.3525H137.581ZM138.823 48.9768C138.823 48.0213 138.426 47.4435 137.616 47.4435C136.917 47.4435 136.313 47.9697 136.193 48.9768H138.823Z" fill="black"/>
<path d="M141.466 46.501H142.613L142.708 47.5694H142.756C143.178 46.785 143.807 46.3557 144.433 46.3557C144.735 46.3557 144.928 46.3912 145.109 46.4784L144.868 47.705C144.662 47.6436 144.506 47.6081 144.252 47.6081C143.782 47.6081 143.213 47.9406 142.851 48.8477V52.5274H141.463V46.5042L141.466 46.501Z" fill="black"/>
<path d="M146.523 53.8573C147.152 53.8573 147.514 53.428 147.705 52.8276L147.813 52.4467L145.484 46.4977H146.898L147.924 49.4545C148.092 49.9806 148.261 50.5842 148.442 51.1459H148.489C148.635 50.5939 148.791 49.9935 148.937 49.4545L149.83 46.4977H151.17L149.023 52.7889C148.527 54.1511 147.911 54.9968 146.622 54.9968C146.294 54.9968 146.066 54.9484 145.85 54.8741L146.104 53.7702C146.212 53.8057 146.38 53.8573 146.526 53.8573H146.523Z" fill="black"/>
<path d="M158.34 44.3544C159.439 44.3544 160.198 44.858 160.693 45.3712L159.921 46.2557C159.524 45.8619 159.089 45.5939 158.352 45.5939C156.951 45.5939 156.011 46.6979 156.011 48.499C156.011 50.3002 156.856 51.43 158.438 51.43C158.873 51.43 159.308 51.3073 159.559 51.0749V49.3447H158.076V48.1795H160.814V51.7108C160.271 52.2272 159.34 52.6662 158.266 52.6662C156.167 52.6662 154.572 51.1943 154.572 48.5345C154.572 45.8748 156.214 44.3512 158.336 44.3512L158.34 44.3544Z" fill="black"/>
<path d="M162.53 46.501H163.676L163.772 47.5694H163.819C164.242 46.785 164.871 46.3557 165.496 46.3557C165.798 46.3557 165.992 46.3912 166.173 46.4784L165.932 47.705C165.725 47.6436 165.569 47.6081 165.315 47.6081C164.845 47.6081 164.277 47.9406 163.914 48.8476V52.5274H162.526V46.5042L162.53 46.501Z" fill="black"/>
<path d="M169.444 46.3525C170.927 46.3525 172.268 47.5048 172.268 49.5158C172.268 51.5268 170.927 52.6662 169.444 52.6662C167.961 52.6662 166.633 51.5139 166.633 49.5158C166.633 47.5178 167.973 46.3525 169.444 46.3525ZM169.444 51.5171C170.314 51.5171 170.845 50.7198 170.845 49.5191C170.845 48.3183 170.314 47.5081 169.444 47.5081C168.574 47.5081 168.056 48.3054 168.056 49.5191C168.056 50.7327 168.574 51.5171 169.444 51.5171Z" fill="black"/>
<path d="M173.693 46.501H175.081V50.0936C175.081 51.0878 175.358 51.4558 175.999 51.4558C176.517 51.4558 176.87 51.2105 177.314 50.623V46.501H178.703V52.5242H177.569L177.461 51.6398H177.426C176.908 52.266 176.327 52.6695 175.52 52.6695C174.252 52.6695 173.697 51.7979 173.697 50.2776V46.501H173.693Z" fill="black"/>
<path d="M181.962 53.0116V54.8999H180.574V46.4977H181.721L181.816 47.1369H181.864C182.359 46.7076 182.998 46.3525 183.649 46.3525C185.123 46.3525 185.977 47.5533 185.977 49.419C185.977 51.4784 184.758 52.6695 183.443 52.6695C182.925 52.6695 182.404 52.4241 181.921 52.0078L181.956 53.0149L181.962 53.0116ZM183.157 51.5042C183.941 51.5042 184.545 50.7941 184.545 49.4319C184.545 48.2311 184.157 47.5178 183.265 47.5178C182.83 47.5178 182.42 47.7373 181.962 48.1924V51.0007C182.397 51.3686 182.807 51.5042 183.157 51.5042Z" fill="black"/>
</g>
<defs>
<clipPath id="clip0_282_4020">
<rect width="186" height="55" fill="white"/>
</clipPath>
</defs>
</svg>
