<svg viewBox="0 0 14 14"><path d="M6.672 10.074a.773.773 0 01-.284-.187l-3.15-3.15a.803.803 0 01-.252-.612.92.92 0 01.251-.612.891.891 0 01.624-.274.815.815 0 01.623.252l1.641 1.64V.875c0-.248.084-.456.252-.623A.85.85 0 017 0c.247 0 .455.083.624.252a.84.84 0 01.251.623v6.256l1.64-1.64a.816.816 0 01.624-.252c.241.007.45.098.623.274.16.175.245.379.252.612a.799.799 0 01-.252.612l-3.15 3.15a.773.773 0 01-.284.187 1.005 1.005 0 01-.656 0zM1.75 14c-.481 0-.893-.171-1.236-.514A1.689 1.689 0 010 12.25V10.5c0-.248.084-.456.252-.623a.85.85 0 01.623-.252c.247 0 .455.083.624.252a.84.84 0 01.251.623v1.75h10.5V10.5c0-.248.084-.456.252-.623a.85.85 0 01.623-.252c.247 0 .455.083.624.252A.84.84 0 0114 10.5v1.75c0 .481-.171.893-.514 1.236A1.68 1.68 0 0112.25 14H1.75z"/></svg>