<svg xmlns="http://www.w3.org/2000/svg" fill="none" viewBox="0 0 29 29"><path fill-rule="evenodd" clip-rule="evenodd" d="M14.183 23.951c-1.669 0-2.444-.244-3.792-1.223-.852 1.101-3.551 1.961-3.67.49 0-1.105-.243-2.039-.519-3.058-.329-1.256-.702-2.654-.702-4.68C5.5 10.64 9.454 7 14.138 7c4.688 0 8.362 3.82 8.362 8.525.016 4.632-3.706 8.402-8.317 8.426zm.069-12.768c-2.282-.118-4.06 1.467-4.453 3.954-.325 2.06.251 4.566.742 4.697.236.057.829-.424 1.198-.795a4.21 4.21 0 002.062.738c2.364.114 4.384-1.693 4.542-4.065.093-2.376-1.727-4.39-4.091-4.525v-.004z" fill="#727272"/></svg>