<svg xmlns="http://www.w3.org/2000/svg" fill="none" viewBox="0 0 29 29"><mask id="la" style="mask-type:luminance" maskUnits="userSpaceOnUse" x="6" y="6" width="17" height="17"><path d="M6 6h17v17H6V6z" fill="#fff"/></mask><g mask="url(#la)"><path d="M16.102 6.125l-.51-.071A8.169 8.169 0 007.61 9.633a8.142 8.142 0 00-.636 8.643 1.164 1.164 0 01.09.895c-.367 1.261-.707 2.532-1.065 3.865l.447-.134c1.208-.323 2.416-.645 3.624-.94.255-.053.52-.028.76.072a8.455 8.455 0 105.27-15.909zm2.254 11.74a2.47 2.47 0 01-2.433.5 8.231 8.231 0 01-4.59-3.32 7.604 7.604 0 01-.994-1.86 2.228 2.228 0 01.493-2.255 1.1 1.1 0 011.18-.376c.18.045.305.304.466.501.131.37.283.731.456 1.083a.841.841 0 01-.179 1.172c-.402.358-.34.653-.053 1.056a5.994 5.994 0 002.523 2.076c.286.125.5.152.689-.143.08-.117.188-.215.277-.323.519-.653.358-.644 1.181-.286.263.11.516.239.76.385.242.143.61.295.663.51a1.297 1.297 0 01-.439 1.28z" fill="#727272"/></g></svg>